<svg width="230" height="370" viewBox="0 0 230 370" fill="none" xmlns="http://www.w3.org/2000/svg">
<rect x="110" y="120" width="10" height="10" fill="#708CB8"/>
<rect x="120" y="120" width="10" height="10" fill="#708CB8"/>
<rect x="110" width="10" height="10" fill="#5A7BA8"/>
<rect x="90" width="10" height="10" fill="#5A7BA8"/>
<rect x="70" y="10" width="10" height="10" fill="#5A7BA8"/>
<rect x="140" y="10" width="10" height="10" fill="#5A7BA8"/>
<rect x="50" y="20" width="10" height="10" fill="#5A7BA8"/>
<rect x="30" y="30" width="10" height="10" fill="#5A7BA8"/>
<rect x="20" y="40" width="10" height="10" fill="#5A7BA8"/>
<rect x="10" y="50" width="10" height="10" fill="#5A7BA8"/>
<rect x="10" y="60" width="10" height="10" fill="#5A7BA8"/>
<rect y="70" width="10" height="10" fill="#5A7BA8"/>
<rect y="80" width="10" height="10" fill="#5A7BA8"/>
<rect y="90" width="10" height="10" fill="#5A7BA8"/>
<rect y="100" width="10" height="10" fill="#5A7BA8"/>
<rect y="110" width="10" height="10" fill="#5A7BA8"/>
<rect x="10" y="120" width="10" height="10" fill="#5A7BA8"/>
<rect x="10" y="130" width="10" height="10" fill="#5A7BA8"/>
<rect x="20" y="140" width="10" height="10" fill="#5A7BA8"/>
<rect x="30" y="150" width="10" height="10" fill="#5A7BA8"/>
<rect x="40" y="160" width="10" height="10" fill="#5A7BA8"/>
<rect x="50" y="170" width="10" height="10" fill="#5A7BA8"/>
<rect x="60" y="180" width="10" height="10" fill="#5A7BA8"/>
<rect x="80" y="190" width="10" height="10" fill="#5A7BA8"/>
<rect x="100" y="200" width="10" height="10" fill="#5A7BA8"/>
<rect x="100" y="210" width="10" height="10" fill="#708CB8"/>
<rect x="100" y="220" width="10" height="10" fill="#5A7BA8"/>
<rect x="70" y="180" width="10" height="10" fill="#5A7BA8"/>
<rect x="90" y="190" width="10" height="10" fill="#5A7BA8"/>
<rect x="110" y="200" width="10" height="10" fill="#5A7BA8"/>
<rect x="110" y="210" width="10" height="10" fill="#708CB8"/>
<rect x="110" y="220" width="10" height="10" fill="#5A7BA8"/>
<rect x="110" y="230" width="10" height="10" fill="#5A7BA8"/>
<rect x="100" y="240" width="10" height="10" fill="#5A7BA8"/>
<rect x="100" y="250" width="10" height="10" fill="#5A7BA8"/>
<rect x="110" y="260" width="10" height="10" fill="#5A7BA8"/>
<rect x="120" y="270" width="10" height="10" fill="#5A7BA8"/>
<rect x="120" y="280" width="10" height="10" fill="#5A7BA8"/>
<rect x="120" y="290" width="10" height="10" fill="#5A7BA8"/>
<rect x="110" y="300" width="10" height="10" fill="#5A7BA8"/>
<rect x="100" y="310" width="10" height="10" fill="#5A7BA8"/>
<rect x="100" y="320" width="10" height="10" fill="#5A7BA8"/>
<rect x="100" y="330" width="10" height="10" fill="#5A7BA8"/>
<rect x="110" y="340" width="10" height="10" fill="#5A7BA8"/>
<rect x="110" y="350" width="10" height="10" fill="#5A7BA8"/>
<rect x="100" y="360" width="10" height="10" fill="#5A7BA8"/>
<rect x="100" width="10" height="10" fill="#5A7BA8"/>
<rect x="80" y="10" width="10" height="10" fill="#5A7BA8"/>
<rect x="150" y="10" width="10" height="10" fill="#5A7BA8"/>
<rect x="60" y="20" width="10" height="10" fill="#5A7BA8"/>
<rect x="40" y="30" width="10" height="10" fill="#5A7BA8"/>
<rect width="10" height="10" transform="matrix(-1 0 0 1 110 130)" fill="#708CB8"/>
<rect width="10" height="10" transform="matrix(-1 0 0 1 100 130)" fill="#708CB8"/>
<rect width="10" height="10" transform="matrix(-1 0 0 1 90 140)" fill="#708CB8"/>
<rect width="10" height="10" transform="matrix(-1 0 0 1 120 130)" fill="#708CB8"/>
<rect width="10" height="10" transform="matrix(-1 0 0 1 90 150)" fill="#708CB8"/>
<rect width="10" height="10" transform="matrix(-1 0 0 1 80 140)" fill="#708CB8"/>
<rect width="10" height="10" transform="matrix(-1 0 0 1 80 150)" fill="#708CB8"/>
<rect width="10" height="10" transform="matrix(-1 0 0 1 140 0)" fill="#5A7BA8"/>
<rect width="10" height="10" transform="matrix(-1 0 0 1 180 20)" fill="#5A7BA8"/>
<rect width="10" height="10" transform="matrix(-1 0 0 1 200 30)" fill="#5A7BA8"/>
<rect width="10" height="10" transform="matrix(-1 0 0 1 210 40)" fill="#5A7BA8"/>
<rect width="10" height="10" transform="matrix(-1 0 0 1 220 50)" fill="#5A7BA8"/>
<rect width="10" height="10" transform="matrix(-1 0 0 1 220 60)" fill="#5A7BA8"/>
<rect width="10" height="10" transform="matrix(-1 0 0 1 230 70)" fill="#5A7BA8"/>
<rect width="10" height="10" transform="matrix(-1 0 0 1 230 80)" fill="#5A7BA8"/>
<rect width="10" height="10" transform="matrix(-1 0 0 1 230 90)" fill="#5A7BA8"/>
<rect width="10" height="10" transform="matrix(-1 0 0 1 230 100)" fill="#5A7BA8"/>
<rect width="10" height="10" transform="matrix(-1 0 0 1 230 110)" fill="#5A7BA8"/>
<rect width="10" height="10" transform="matrix(-1 0 0 1 220 120)" fill="#5A7BA8"/>
<rect width="10" height="10" transform="matrix(-1 0 0 1 220 130)" fill="#5A7BA8"/>
<rect width="10" height="10" transform="matrix(-1 0 0 1 210 140)" fill="#5A7BA8"/>
<rect width="10" height="10" transform="matrix(-1 0 0 1 200 150)" fill="#5A7BA8"/>
<rect width="10" height="10" transform="matrix(-1 0 0 1 190 160)" fill="#5A7BA8"/>
<rect width="10" height="10" transform="matrix(-1 0 0 1 180 170)" fill="#5A7BA8"/>
<rect width="10" height="10" transform="matrix(-1 0 0 1 170 180)" fill="#5A7BA8"/>
<rect width="10" height="10" transform="matrix(-1 0 0 1 150 190)" fill="#5A7BA8"/>
<rect width="10" height="10" transform="matrix(-1 0 0 1 130 200)" fill="#5A7BA8"/>
<rect width="10" height="10" transform="matrix(-1 0 0 1 130 210)" fill="#708CB8"/>
<rect width="10" height="10" transform="matrix(-1 0 0 1 130 220)" fill="#5A7BA8"/>
<rect width="10" height="10" transform="matrix(-1 0 0 1 140 220)" fill="#5A7BA8"/>
<rect width="10" height="10" transform="matrix(-1 0 0 1 140 210)" fill="#5A7BA8"/>
<rect width="10" height="10" transform="matrix(-1 0 0 1 100 220)" fill="#5A7BA8"/>
<rect width="10" height="10" transform="matrix(-1 0 0 1 100 210)" fill="#5A7BA8"/>
<rect width="10" height="10" transform="matrix(-1 0 0 1 160 180)" fill="#5A7BA8"/>
<rect width="10" height="10" transform="matrix(-1 0 0 1 140 190)" fill="#5A7BA8"/>
<rect width="10" height="10" transform="matrix(-1 0 0 1 130 0)" fill="#5A7BA8"/>
<rect width="10" height="10" transform="matrix(-1 0 0 1 170 20)" fill="#5A7BA8"/>
<rect width="10" height="10" transform="matrix(-1 0 0 1 190 30)" fill="#5A7BA8"/>
<rect x="50" y="30" width="10" height="10" fill="#A7C7E7"/>
<rect x="50" y="50" width="10" height="10" fill="#A7C7E7"/>
<rect x="40" y="50" width="10" height="10" fill="#A7C7E7"/>
<rect x="40" y="40" width="10" height="10" fill="#A7C7E7"/>
<rect x="30" y="50" width="10" height="10" fill="#A7C7E7"/>
<rect x="30" y="40" width="10" height="10" fill="#A7C7E7"/>
<rect x="30" y="60" width="10" height="10" fill="#A7C7E7"/>
<rect x="20" y="50" width="10" height="10" fill="#A7C7E7"/>
<rect x="20" y="60" width="10" height="10" fill="#A7C7E7"/>
<rect x="60" y="50" width="10" height="10" fill="#A7C7E7"/>
<rect x="60" y="40" width="10" height="10" fill="#A7C7E7"/>
<rect x="60" y="30" width="10" height="10" fill="#A7C7E7"/>
<rect x="100" y="190" width="10" height="10" fill="#A7C7E7"/>
<rect x="120" y="180" width="10" height="10" fill="#A7C7E7"/>
<rect x="80" y="180" width="10" height="10" fill="#A7C7E7"/>
<rect x="60" y="170" width="10" height="10" fill="#A7C7E7"/>
<rect x="140" y="170" width="10" height="10" fill="#A7C7E7"/>
<rect x="70" y="50" width="10" height="10" fill="#A7C7E7"/>
<rect x="70" y="40" width="10" height="10" fill="#A7C7E7"/>
<rect x="70" y="30" width="10" height="10" fill="#A7C7E7"/>
<rect x="70" y="20" width="10" height="10" fill="#A7C7E7"/>
<rect x="110" y="190" width="10" height="10" fill="#A7C7E7"/>
<rect x="130" y="180" width="10" height="10" fill="#A7C7E7"/>
<rect x="90" y="180" width="10" height="10" fill="#A7C7E7"/>
<rect x="70" y="170" width="10" height="10" fill="#A7C7E7"/>
<rect x="150" y="170" width="10" height="10" fill="#A7C7E7"/>
<rect x="70" y="60" width="10" height="10" fill="#A7C7E7"/>
<rect x="80" y="70" width="10" height="10" fill="#A7C7E7"/>
<rect x="200" y="110" width="10" height="10" fill="#A7C7E7"/>
<rect x="210" y="110" width="10" height="10" fill="#A7C7E7"/>
<rect x="10" y="90" width="10" height="10" fill="#A7C7E7"/>
<rect x="80" y="80" width="10" height="10" fill="#A7C7E7"/>
<rect x="200" y="120" width="10" height="10" fill="#A7C7E7"/>
<rect x="80" y="90" width="10" height="10" fill="#A7C7E7"/>
<rect x="200" y="130" width="10" height="10" fill="#A7C7E7"/>
<rect x="70" y="100" width="10" height="10" fill="#A7C7E7"/>
<rect x="60" y="110" width="10" height="10" fill="#A7C7E7"/>
<rect x="10" y="110" width="10" height="10" fill="#A7C7E7"/>
<rect x="50" y="120" width="10" height="10" fill="#A7C7E7"/>
<rect x="20" y="130" width="10" height="10" fill="#A7C7E7"/>
<rect x="10" y="100" width="10" height="10" fill="#A7C7E7"/>
<rect x="80" y="50" width="10" height="10" fill="#A7C7E7"/>
<rect x="80" y="40" width="10" height="10" fill="#A7C7E7"/>
<rect x="80" y="30" width="10" height="10" fill="#A7C7E7"/>
<rect x="80" y="20" width="10" height="10" fill="#A7C7E7"/>
<rect x="120" y="190" width="10" height="10" fill="#A7C7E7"/>
<rect x="140" y="180" width="10" height="10" fill="#A7C7E7"/>
<rect x="100" y="180" width="10" height="10" fill="#A7C7E7"/>
<rect x="110" y="180" width="10" height="10" fill="#A7C7E7"/>
<rect x="80" y="170" width="10" height="10" fill="#A7C7E7"/>
<rect x="160" y="170" width="10" height="10" fill="#A7C7E7"/>
<rect x="200" y="90" width="10" height="10" fill="#A7C7E7"/>
<rect x="210" y="90" width="10" height="10" fill="#A7C7E7"/>
<rect x="10" y="70" width="10" height="10" fill="#A7C7E7"/>
<rect x="80" y="60" width="10" height="10" fill="#A7C7E7"/>
<rect x="200" y="100" width="10" height="10" fill="#A7C7E7"/>
<rect x="210" y="100" width="10" height="10" fill="#A7C7E7"/>
<rect x="10" y="80" width="10" height="10" fill="#A7C7E7"/>
<rect x="90" y="70" width="10" height="10" fill="#A7C7E7"/>
<rect x="20" y="90" width="10" height="10" fill="#A7C7E7"/>
<rect x="90" y="80" width="10" height="10" fill="#A7C7E7"/>
<rect x="90" y="90" width="10" height="10" fill="#A7C7E7"/>
<rect x="80" y="100" width="10" height="10" fill="#A7C7E7"/>
<rect x="70" y="110" width="10" height="10" fill="#A7C7E7"/>
<rect x="20" y="110" width="10" height="10" fill="#A7C7E7"/>
<rect x="20" y="120" width="10" height="10" fill="#A7C7E7"/>
<rect x="60" y="120" width="10" height="10" fill="#A7C7E7"/>
<rect x="30" y="130" width="10" height="10" fill="#A7C7E7"/>
<rect x="30" y="140" width="10" height="10" fill="#A7C7E7"/>
<rect x="20" y="100" width="10" height="10" fill="#A7C7E7"/>
<rect x="30" y="100" width="10" height="10" fill="#A7C7E7"/>
<rect x="90" y="50" width="10" height="10" fill="#A7C7E7"/>
<rect x="90" y="40" width="10" height="10" fill="#A7C7E7"/>
<rect x="90" y="30" width="10" height="10" fill="#A7C7E7"/>
<rect x="90" y="20" width="10" height="10" fill="#A7C7E7"/>
<rect x="90" y="10" width="10" height="10" fill="#A7C7E7"/>
<rect x="20" y="70" width="10" height="10" fill="#A7C7E7"/>
<rect x="90" y="60" width="10" height="10" fill="#A7C7E7"/>
<rect x="20" y="80" width="10" height="10" fill="#A7C7E7"/>
<rect x="100" y="70" width="10" height="10" fill="#A7C7E7"/>
<rect x="100" y="80" width="10" height="10" fill="#A7C7E7"/>
<rect x="100" y="90" width="10" height="10" fill="#A7C7E7"/>
<rect x="90" y="100" width="10" height="10" fill="#A7C7E7"/>
<rect x="80" y="110" width="10" height="10" fill="white"/>
<rect x="30" y="110" width="10" height="10" fill="#A7C7E7"/>
<rect x="30" y="120" width="10" height="10" fill="#A7C7E7"/>
<rect x="70" y="120" width="10" height="10" fill="#A7C7E7"/>
<rect x="40" y="130" width="10" height="10" fill="#A7C7E7"/>
<rect x="40" y="140" width="10" height="10" fill="#A7C7E7"/>
<rect x="40" y="150" width="10" height="10" fill="#A7C7E7"/>
<rect x="50" y="160" width="10" height="10" fill="#A7C7E7"/>
<rect x="160" y="160" width="10" height="10" fill="#A7C7E7"/>
<rect x="170" y="150" width="10" height="10" fill="#A7C7E7"/>
<rect x="100" y="50" width="10" height="10" fill="#A7C7E7"/>
<rect x="100" y="40" width="10" height="10" fill="#A7C7E7"/>
<rect x="100" y="30" width="10" height="10" fill="#A7C7E7"/>
<rect x="100" y="20" width="10" height="10" fill="#A7C7E7"/>
<rect x="100" y="10" width="10" height="10" fill="#A7C7E7"/>
<rect x="100" y="60" width="10" height="10" fill="#A7C7E7"/>
<rect x="110" y="70" width="10" height="10" fill="#A7C7E7"/>
<rect x="110" y="80" width="10" height="10" fill="#A7C7E7"/>
<rect x="110" y="90" width="10" height="10" fill="#A7C7E7"/>
<rect x="100" y="100" width="10" height="10" fill="#A7C7E7"/>
<rect x="90" y="110" width="10" height="10" fill="#A7C7E7"/>
<rect x="40" y="110" width="10" height="10" fill="#A7C7E7"/>
<rect x="40" y="120" width="10" height="10" fill="#A7C7E7"/>
<rect x="80" y="120" width="10" height="10" fill="#A7C7E7"/>
<rect x="50" y="130" width="10" height="10" fill="#A7C7E7"/>
<rect x="50" y="140" width="10" height="10" fill="#A7C7E7"/>
<rect x="50" y="150" width="10" height="10" fill="#A7C7E7"/>
<rect x="60" y="160" width="10" height="10" fill="#A7C7E7"/>
<rect x="170" y="160" width="10" height="10" fill="#A7C7E7"/>
<rect x="180" y="150" width="10" height="10" fill="#A7C7E7"/>
<rect x="180" y="140" width="10" height="10" fill="#A7C7E7"/>
<rect x="110" y="50" width="10" height="10" fill="#A7C7E7"/>
<rect x="110" y="40" width="10" height="10" fill="#A7C7E7"/>
<rect x="110" y="30" width="10" height="10" fill="#A7C7E7"/>
<rect x="110" y="20" width="10" height="10" fill="#A7C7E7"/>
<rect x="110" y="10" width="10" height="10" fill="#A7C7E7"/>
<rect x="110" y="60" width="10" height="10" fill="#A7C7E7"/>
<rect x="120" y="70" width="10" height="10" fill="#A7C7E7"/>
<rect x="120" y="80" width="10" height="10" fill="#A7C7E7"/>
<rect x="120" y="90" width="10" height="10" fill="#A7C7E7"/>
<rect x="110" y="100" width="10" height="10" fill="#A7C7E7"/>
<rect x="100" y="110" width="10" height="10" fill="#A7C7E7"/>
<rect x="50" y="110" width="10" height="10" fill="#A7C7E7"/>
<rect x="90" y="120" width="10" height="10" fill="#A7C7E7"/>
<rect x="60" y="130" width="10" height="10" fill="#A7C7E7"/>
<rect x="120" y="50" width="10" height="10" fill="#A7C7E7"/>
<rect x="120" y="40" width="10" height="10" fill="#A7C7E7"/>
<rect x="120" y="30" width="10" height="10" fill="#A7C7E7"/>
<rect x="120" y="20" width="10" height="10" fill="#A7C7E7"/>
<rect x="120" y="10" width="10" height="10" fill="#A7C7E7"/>
<rect x="120" y="60" width="10" height="10" fill="#A7C7E7"/>
<rect x="130" y="70" width="10" height="10" fill="#A7C7E7"/>
<rect x="130" y="80" width="10" height="10" fill="#A7C7E7"/>
<rect x="130" y="90" width="10" height="10" fill="#A7C7E7"/>
<rect x="120" y="100" width="10" height="10" fill="#A7C7E7"/>
<rect x="110" y="110" width="10" height="10" fill="#A7C7E7"/>
<rect x="100" y="120" width="10" height="10" fill="#A7C7E7"/>
<rect x="70" y="130" width="10" height="10" fill="#A7C7E7"/>
<rect x="130" y="50" width="10" height="10" fill="#A7C7E7"/>
<rect x="130" y="40" width="10" height="10" fill="#A7C7E7"/>
<rect x="130" y="30" width="10" height="10" fill="#A7C7E7"/>
<rect x="130" y="20" width="10" height="10" fill="#A7C7E7"/>
<rect x="130" y="10" width="10" height="10" fill="#A7C7E7"/>
<rect x="130" y="60" width="10" height="10" fill="#A7C7E7"/>
<rect x="140" y="70" width="10" height="10" fill="#A7C7E7"/>
<rect x="140" y="80" width="10" height="10" fill="#A7C7E7"/>
<rect x="140" y="90" width="10" height="10" fill="#A7C7E7"/>
<rect x="130" y="100" width="10" height="10" fill="#A7C7E7"/>
<rect x="120" y="110" width="10" height="10" fill="#A7C7E7"/>
<rect x="110" y="120" width="10" height="10" fill="#A7C7E7"/>
<rect x="80" y="130" width="10" height="10" fill="#A7C7E7"/>
<rect x="140" y="50" width="10" height="10" fill="#A7C7E7"/>
<rect x="140" y="40" width="10" height="10" fill="#A7C7E7"/>
<rect x="140" y="30" width="10" height="10" fill="#A7C7E7"/>
<rect x="140" y="20" width="10" height="10" fill="#A7C7E7"/>
<rect x="140" y="60" width="10" height="10" fill="#A7C7E7"/>
<rect x="150" y="70" width="10" height="10" fill="#A7C7E7"/>
<rect x="150" y="80" width="10" height="10" fill="#A7C7E7"/>
<rect x="150" y="50" width="10" height="10" fill="#A7C7E7"/>
<rect x="150" y="40" width="10" height="10" fill="#A7C7E7"/>
<rect x="150" y="30" width="10" height="10" fill="#A7C7E7"/>
<rect x="150" y="20" width="10" height="10" fill="#A7C7E7"/>
<rect x="150" y="60" width="10" height="10" fill="#A7C7E7"/>
<rect x="160" y="70" width="10" height="10" fill="#A7C7E7"/>
<rect x="160" y="80" width="10" height="10" fill="#708CB8"/>
<rect x="160" y="90" width="10" height="10" fill="#708CB8"/>
<rect x="160" y="100" width="10" height="10" fill="#708CB8"/>
<rect x="150" y="100" width="10" height="10" fill="#708CB8"/>
<rect x="160" y="110" width="10" height="10" fill="#708CB8"/>
<rect x="150" y="110" width="10" height="10" fill="#708CB8"/>
<rect x="160" y="120" width="10" height="10" fill="#708CB8"/>
<rect x="150" y="120" width="10" height="10" fill="#708CB8"/>
<rect x="150" y="90" width="10" height="10" fill="#708CB8"/>
<rect x="140" y="100" width="10" height="10" fill="#708CB8"/>
<rect x="130" y="110" width="10" height="10" fill="#708CB8"/>
<rect x="140" y="110" width="10" height="10" fill="#708CB8"/>
<rect x="160" y="50" width="10" height="10" fill="#A7C7E7"/>
<rect x="160" y="40" width="10" height="10" fill="#A7C7E7"/>
<rect x="160" y="30" width="10" height="10" fill="#A7C7E7"/>
<rect x="160" y="60" width="10" height="10" fill="#A7C7E7"/>
<rect x="170" y="70" width="10" height="10" fill="#708CB8"/>
<rect x="170" y="80" width="10" height="10" fill="#708CB8"/>
<rect x="170" y="90" width="10" height="10" fill="#708CB8"/>
<rect x="170" y="100" width="10" height="10" fill="#708CB8"/>
<rect x="170" y="110" width="10" height="10" fill="#708CB8"/>
<rect x="170" y="120" width="10" height="10" fill="#708CB8"/>
<rect x="170" y="130" width="10" height="10" fill="#708CB8"/>
<rect x="170" y="50" width="10" height="10" fill="#A7C7E7"/>
<rect x="170" y="40" width="10" height="10" fill="#A7C7E7"/>
<rect x="170" y="30" width="10" height="10" fill="#A7C7E7"/>
<rect x="170" y="60" width="10" height="10" fill="#A7C7E7"/>
<rect x="180" y="70" width="10" height="10" fill="#708CB8"/>
<rect x="180" y="80" width="10" height="10" fill="#708CB8"/>
<rect x="180" y="90" width="10" height="10" fill="#708CB8"/>
<rect x="180" y="100" width="10" height="10" fill="#708CB8"/>
<rect x="180" y="110" width="10" height="10" fill="#708CB8"/>
<rect x="180" y="120" width="10" height="10" fill="#708CB8"/>
<rect x="180" y="50" width="10" height="10" fill="#A7C7E7"/>
<rect x="180" y="40" width="10" height="10" fill="#A7C7E7"/>
<rect x="180" y="60" width="10" height="10" fill="#A7C7E7"/>
<rect x="190" y="70" width="10" height="10" fill="#A7C7E7"/>
<rect x="190" y="80" width="10" height="10" fill="#708CB8"/>
<rect x="190" y="90" width="10" height="10" fill="#708CB8"/>
<rect x="190" y="100" width="10" height="10" fill="#708CB8"/>
<rect x="190" y="110" width="10" height="10" fill="#708CB8"/>
<rect x="190" y="120" width="10" height="10" fill="#708CB8"/>
<rect x="180" y="130" width="10" height="10" fill="#708CB8"/>
<rect x="170" y="140" width="10" height="10" fill="#708CB8"/>
<rect x="160" y="150" width="10" height="10" fill="#708CB8"/>
<rect x="150" y="160" width="10" height="10" fill="#708CB8"/>
<rect x="140" y="160" width="10" height="10" fill="#708CB8"/>
<rect x="130" y="170" width="10" height="10" fill="#708CB8"/>
<rect x="130" y="160" width="10" height="10" fill="#708CB8"/>
<rect x="130" y="150" width="10" height="10" fill="#708CB8"/>
<rect x="130" y="140" width="10" height="10" fill="#708CB8"/>
<rect x="160" y="130" width="10" height="10" fill="#708CB8"/>
<rect x="160" y="140" width="10" height="10" fill="#708CB8"/>
<rect x="120" y="170" width="10" height="10" fill="#708CB8"/>
<rect x="120" y="160" width="10" height="10" fill="#708CB8"/>
<rect x="120" y="150" width="10" height="10" fill="#708CB8"/>
<rect x="120" y="140" width="10" height="10" fill="#708CB8"/>
<rect x="150" y="130" width="10" height="10" fill="#708CB8"/>
<rect x="150" y="140" width="10" height="10" fill="#708CB8"/>
<rect x="150" y="150" width="10" height="10" fill="#708CB8"/>
<rect x="140" y="120" width="10" height="10" fill="#708CB8"/>
<rect x="110" y="170" width="10" height="10" fill="#708CB8"/>
<rect x="110" y="160" width="10" height="10" fill="#708CB8"/>
<rect x="110" y="150" width="10" height="10" fill="#708CB8"/>
<rect x="110" y="140" width="10" height="10" fill="#708CB8"/>
<rect x="140" y="130" width="10" height="10" fill="#708CB8"/>
<rect x="140" y="140" width="10" height="10" fill="#708CB8"/>
<rect x="140" y="150" width="10" height="10" fill="#708CB8"/>
<rect x="130" y="120" width="10" height="10" fill="#708CB8"/>
<rect x="100" y="170" width="10" height="10" fill="#708CB8"/>
<rect x="100" y="160" width="10" height="10" fill="#708CB8"/>
<rect x="100" y="150" width="10" height="10" fill="#708CB8"/>
<rect x="100" y="140" width="10" height="10" fill="#708CB8"/>
<rect x="130" y="130" width="10" height="10" fill="#708CB8"/>
<rect x="90" y="170" width="10" height="10" fill="#708CB8"/>
<rect x="90" y="160" width="10" height="10" fill="#708CB8"/>
<rect x="90" y="150" width="10" height="10" fill="#708CB8"/>
<rect x="90" y="140" width="10" height="10" fill="#708CB8"/>
<rect x="120" y="130" width="10" height="10" fill="#708CB8"/>
<rect x="80" y="160" width="10" height="10" fill="#708CB8"/>
<rect x="70" y="160" width="10" height="10" fill="#708CB8"/>
<rect x="60" y="150" width="10" height="10" fill="#708CB8"/>
<rect x="60" y="140" width="10" height="10" fill="#708CB8"/>
<rect x="190" y="50" width="10" height="10" fill="#A7C7E7"/>
<rect x="190" y="40" width="10" height="10" fill="#A7C7E7"/>
<rect x="190" y="60" width="10" height="10" fill="#A7C7E7"/>
<rect x="200" y="70" width="10" height="10" fill="#A7C7E7"/>
<rect x="190" y="130" width="10" height="10" fill="#A7C7E7"/>
<rect x="200" y="80" width="10" height="10" fill="#A7C7E7"/>
<rect x="190" y="140" width="10" height="10" fill="#A7C7E7"/>
<rect x="200" y="50" width="10" height="10" fill="#A7C7E7"/>
<rect x="200" y="60" width="10" height="10" fill="#A7C7E7"/>
<rect x="210" y="70" width="10" height="10" fill="#A7C7E7"/>
<rect x="210" y="80" width="10" height="10" fill="#A7C7E7"/>
<rect x="50" y="40" width="10" height="10" fill="#A7C7E7"/>
<rect x="40" y="60" width="10" height="10" fill="#E3F2FD"/>
<rect x="40" y="70" width="10" height="10" fill="white"/>
<rect x="40" y="80" width="10" height="10" fill="white"/>
<rect x="40" y="90" width="10" height="10" fill="white"/>
<rect x="40" y="100" width="10" height="10" fill="#E3F2FD"/>
<rect x="50" y="60" width="10" height="10" fill="#E3F2FD"/>
<rect x="50" y="70" width="10" height="10" fill="white"/>
<rect x="50" y="80" width="10" height="10" fill="white"/>
<rect x="50" y="90" width="10" height="10" fill="white"/>
<rect x="50" y="100" width="10" height="10" fill="#E3F2FD"/>
<rect x="60" y="60" width="10" height="10" fill="#E3F2FD"/>
<rect x="60" y="70" width="10" height="10" fill="white"/>
<rect x="70" y="70" width="10" height="10" fill="#E3F2FD"/>
<rect x="30" y="70" width="10" height="10" fill="#E3F2FD"/>
<rect x="60" y="80" width="10" height="10" fill="white"/>
<rect x="70" y="80" width="10" height="10" fill="#E3F2FD"/>
<rect x="30" y="80" width="10" height="10" fill="#E3F2FD"/>
<rect x="60" y="90" width="10" height="10" fill="white"/>
<rect x="70" y="90" width="10" height="10" fill="#E3F2FD"/>
<rect x="30" y="90" width="10" height="10" fill="#E3F2FD"/>
<rect x="60" y="100" width="10" height="10" fill="#E3F2FD"/>
</svg>
