<svg width="360" height="810" viewBox="0 0 360 810" fill="none" xmlns="http://www.w3.org/2000/svg">
<g clip-path="url(#clip0_64_4)">
<rect width="360" height="810" fill="#3B8B46"/>
<rect y="800" width="10" height="10" fill="#E6E8E5"/>
<rect x="10" y="800" width="10" height="10" fill="#E6E8E5"/>
<rect x="20" y="800" width="10" height="10" fill="#E6E8E5"/>
<rect x="30" y="800" width="10" height="10" fill="#E6E8E5"/>
<rect x="40" y="800" width="10" height="10" fill="#E6E8E5"/>
<rect x="50" y="800" width="10" height="10" fill="#E6E8E5"/>
<rect x="60" y="800" width="10" height="10" fill="#E6E8E5"/>
<rect x="70" y="800" width="10" height="10" fill="#E6E8E5"/>
<rect x="80" y="800" width="10" height="10" fill="#E6E8E5"/>
<rect x="90" y="800" width="10" height="10" fill="#E6E8E5"/>
<rect x="100" y="800" width="10" height="10" fill="#E6E8E5"/>
<rect x="110" y="800" width="10" height="10" fill="#E6E8E5"/>
<rect x="120" y="800" width="10" height="10" fill="#E6E8E5"/>
<rect x="130" y="800" width="10" height="10" fill="#E6E8E5"/>
<rect x="140" y="800" width="10" height="10" fill="#E6E8E5"/>
<rect x="150" y="800" width="10" height="10" fill="#E6E8E5"/>
<rect x="160" y="800" width="10" height="10" fill="#E6E8E5"/>
<rect x="170" y="800" width="10" height="10" fill="#E6E8E5"/>
<rect x="180" y="800" width="10" height="10" fill="#E6E8E5"/>
<rect x="190" y="800" width="10" height="10" fill="#E6E8E5"/>
<rect x="200" y="800" width="10" height="10" fill="#E6E8E5"/>
<rect x="210" y="800" width="10" height="10" fill="#E6E8E5"/>
<rect x="220" y="800" width="10" height="10" fill="#E6E8E5"/>
<rect x="230" y="800" width="10" height="10" fill="#E6E8E5"/>
<rect x="240" y="800" width="10" height="10" fill="#E6E8E5"/>
<rect x="250" y="800" width="10" height="10" fill="#E6E8E5"/>
<rect x="260" y="800" width="10" height="10" fill="#E6E8E5"/>
<rect x="270" y="800" width="10" height="10" fill="#E6E8E5"/>
<rect x="280" y="800" width="10" height="10" fill="#E6E8E5"/>
<rect x="290" y="800" width="10" height="10" fill="#E6E8E5"/>
<rect x="300" y="800" width="10" height="10" fill="#E6E8E5"/>
<rect x="310" y="800" width="10" height="10" fill="#E6E8E5"/>
<rect x="320" y="800" width="10" height="10" fill="#E6E8E5"/>
<rect x="330" y="800" width="10" height="10" fill="#E6E8E5"/>
<rect x="340" y="800" width="10" height="10" fill="#E6E8E5"/>
<rect x="350" y="800" width="10" height="10" fill="#E6E8E5"/>
<rect x="350" y="790" width="10" height="10" fill="#E6E8E5"/>
<rect x="350" y="780" width="10" height="10" fill="#E6E8E5"/>
<rect x="350" y="770" width="10" height="10" fill="#E6E8E5"/>
<rect x="350" y="760" width="10" height="10" fill="#E6E8E5"/>
<rect x="350" y="750" width="10" height="10" fill="#E6E8E5"/>
<rect x="350" y="740" width="10" height="10" fill="#E6E8E5"/>
<rect x="350" y="730" width="10" height="10" fill="#E6E8E5"/>
<rect x="350" y="720" width="10" height="10" fill="#E6E8E5"/>
<rect x="350" y="710" width="10" height="10" fill="#E6E8E5"/>
<rect x="350" y="700" width="10" height="10" fill="#E6E8E5"/>
<rect x="350" y="690" width="10" height="10" fill="#E6E8E5"/>
<rect x="350" y="680" width="10" height="10" fill="#E6E8E5"/>
<rect x="350" y="670" width="10" height="10" fill="#E6E8E5"/>
<rect x="350" y="660" width="10" height="10" fill="#E6E8E5"/>
<rect x="350" y="650" width="10" height="10" fill="#E6E8E5"/>
<rect x="350" y="640" width="10" height="10" fill="#E6E8E5"/>
<rect x="350" y="630" width="10" height="10" fill="#E6E8E5"/>
<rect x="350" y="620" width="10" height="10" fill="#E6E8E5"/>
<rect x="350" y="610" width="10" height="10" fill="#E6E8E5"/>
<rect x="350" y="600" width="10" height="10" fill="#E6E8E5"/>
<rect x="350" y="590" width="10" height="10" fill="#E6E8E5"/>
<rect x="350" y="580" width="10" height="10" fill="#E6E8E5"/>
<rect x="350" y="570" width="10" height="10" fill="#E6E8E5"/>
<rect x="350" y="560" width="10" height="10" fill="#E6E8E5"/>
<rect x="350" y="550" width="10" height="10" fill="#E6E8E5"/>
<rect x="350" y="540" width="10" height="10" fill="#E6E8E5"/>
<rect x="350" y="530" width="10" height="10" fill="#E6E8E5"/>
<rect x="350" y="520" width="10" height="10" fill="#E6E8E5"/>
<rect x="350" y="510" width="10" height="10" fill="#E6E8E5"/>
<rect x="350" y="500" width="10" height="10" fill="#E6E8E5"/>
<rect x="350" y="490" width="10" height="10" fill="#E6E8E5"/>
<rect x="350" y="480" width="10" height="10" fill="#E6E8E5"/>
<rect x="350" y="470" width="10" height="10" fill="#E6E8E5"/>
<rect x="350" y="460" width="10" height="10" fill="#E6E8E5"/>
<rect x="350" y="450" width="10" height="10" fill="#E6E8E5"/>
<rect x="350" y="440" width="10" height="10" fill="#E6E8E5"/>
<rect x="350" y="430" width="10" height="10" fill="#E6E8E5"/>
<rect x="350" y="420" width="10" height="10" fill="#E6E8E5"/>
<rect x="350" y="410" width="10" height="10" fill="#E6E8E5"/>
<rect x="350" y="400" width="10" height="10" fill="#E6E8E5"/>
<rect x="350" y="390" width="10" height="10" fill="#E6E8E5"/>
<rect x="350" y="380" width="10" height="10" fill="#E6E8E5"/>
<rect x="350" y="370" width="10" height="10" fill="#E6E8E5"/>
<rect x="350" y="360" width="10" height="10" fill="#E6E8E5"/>
<rect x="350" y="350" width="10" height="10" fill="#E6E8E5"/>
<rect x="350" y="340" width="10" height="10" fill="#E6E8E5"/>
<rect x="350" y="330" width="10" height="10" fill="#E6E8E5"/>
<rect x="350" y="320" width="10" height="10" fill="#E6E8E5"/>
<rect x="350" y="310" width="10" height="10" fill="#E6E8E5"/>
<rect x="350" y="300" width="10" height="10" fill="#E6E8E5"/>
<rect x="350" y="290" width="10" height="10" fill="#E6E8E5"/>
<rect x="350" y="280" width="10" height="10" fill="#E6E8E5"/>
<rect x="350" y="270" width="10" height="10" fill="#E6E8E5"/>
<rect x="350" y="260" width="10" height="10" fill="#E6E8E5"/>
<rect x="350" y="250" width="10" height="10" fill="#E6E8E5"/>
<rect x="350" y="240" width="10" height="10" fill="#E6E8E5"/>
<rect x="350" y="230" width="10" height="10" fill="#E6E8E5"/>
<rect x="350" y="220" width="10" height="10" fill="#E6E8E5"/>
<rect x="350" y="210" width="10" height="10" fill="#E6E8E5"/>
<rect x="350" y="200" width="10" height="10" fill="#E6E8E5"/>
<rect x="350" y="190" width="10" height="10" fill="#E6E8E5"/>
<rect x="350" y="180" width="10" height="10" fill="#E6E8E5"/>
<rect x="350" y="170" width="10" height="10" fill="#E6E8E5"/>
<rect x="350" y="160" width="10" height="10" fill="#E6E8E5"/>
<rect x="350" y="150" width="10" height="10" fill="#E6E8E5"/>
<rect x="350" y="140" width="10" height="10" fill="#E6E8E5"/>
<rect x="350" y="130" width="10" height="10" fill="#E6E8E5"/>
<rect x="350" y="120" width="10" height="10" fill="#E6E8E5"/>
<rect x="350" y="110" width="10" height="10" fill="#E6E8E5"/>
<rect x="350" y="100" width="10" height="10" fill="#E6E8E5"/>
<rect x="350" y="90" width="10" height="10" fill="#E6E8E5"/>
<rect x="350" y="80" width="10" height="10" fill="#E6E8E5"/>
<rect x="350" y="70" width="10" height="10" fill="#E6E8E5"/>
<rect x="350" y="60" width="10" height="10" fill="#E6E8E5"/>
<rect x="350" y="50" width="10" height="10" fill="#E6E8E5"/>
<rect x="350" y="40" width="10" height="10" fill="#E6E8E5"/>
<rect x="350" y="30" width="10" height="10" fill="#E6E8E5"/>
<rect x="350" y="20" width="10" height="10" fill="#E6E8E5"/>
<rect x="350" y="10" width="10" height="10" fill="#E6E8E5"/>
<rect x="350" width="10" height="10" fill="#E6E8E5"/>
<rect x="360" y="10" width="10" height="10" transform="rotate(-180 360 10)" fill="#E6E8E5"/>
<rect x="350" y="10" width="10" height="10" transform="rotate(-180 350 10)" fill="#E6E8E5"/>
<rect x="340" y="10" width="10" height="10" transform="rotate(-180 340 10)" fill="#E6E8E5"/>
<rect x="330" y="10" width="10" height="10" transform="rotate(-180 330 10)" fill="#E6E8E5"/>
<rect x="320" y="10" width="10" height="10" transform="rotate(-180 320 10)" fill="#E6E8E5"/>
<rect x="310" y="10" width="10" height="10" transform="rotate(-180 310 10)" fill="#E6E8E5"/>
<rect x="300" y="10" width="10" height="10" transform="rotate(-180 300 10)" fill="#E6E8E5"/>
<rect x="290" y="10" width="10" height="10" transform="rotate(-180 290 10)" fill="#E6E8E5"/>
<rect x="280" y="10" width="10" height="10" transform="rotate(-180 280 10)" fill="#E6E8E5"/>
<rect x="270" y="10" width="10" height="10" transform="rotate(-180 270 10)" fill="#E6E8E5"/>
<rect x="260" y="10" width="10" height="10" transform="rotate(-180 260 10)" fill="#E6E8E5"/>
<rect x="250" y="10" width="10" height="10" transform="rotate(-180 250 10)" fill="#E6E8E5"/>
<rect x="240" y="10" width="10" height="10" transform="rotate(-180 240 10)" fill="#E6E8E5"/>
<rect x="230" y="10" width="10" height="10" transform="rotate(-180 230 10)" fill="#E6E8E5"/>
<rect x="220" y="10" width="10" height="10" transform="rotate(-180 220 10)" fill="#E6E8E5"/>
<rect x="210" y="10" width="10" height="10" transform="rotate(-180 210 10)" fill="#E6E8E5"/>
<rect x="200" y="10" width="10" height="10" transform="rotate(-180 200 10)" fill="#E6E8E5"/>
<rect x="190" y="10" width="10" height="10" transform="rotate(-180 190 10)" fill="#E6E8E5"/>
<rect x="180" y="10" width="10" height="10" transform="rotate(-180 180 10)" fill="#E6E8E5"/>
<rect x="170" y="10" width="10" height="10" transform="rotate(-180 170 10)" fill="#E6E8E5"/>
<rect x="160" y="10" width="10" height="10" transform="rotate(-180 160 10)" fill="#E6E8E5"/>
<rect x="150" y="10" width="10" height="10" transform="rotate(-180 150 10)" fill="#E6E8E5"/>
<rect x="140" y="10" width="10" height="10" transform="rotate(-180 140 10)" fill="#E6E8E5"/>
<rect x="130" y="10" width="10" height="10" transform="rotate(-180 130 10)" fill="#E6E8E5"/>
<rect x="120" y="10" width="10" height="10" transform="rotate(-180 120 10)" fill="#E6E8E5"/>
<rect x="110" y="10" width="10" height="10" transform="rotate(-180 110 10)" fill="#E6E8E5"/>
<rect x="100" y="10" width="10" height="10" transform="rotate(-180 100 10)" fill="#E6E8E5"/>
<rect x="90" y="10" width="10" height="10" transform="rotate(-180 90 10)" fill="#E6E8E5"/>
<rect x="80" y="10" width="10" height="10" transform="rotate(-180 80 10)" fill="#E6E8E5"/>
<rect x="70" y="10" width="10" height="10" transform="rotate(-180 70 10)" fill="#E6E8E5"/>
<rect x="60" y="10" width="10" height="10" transform="rotate(-180 60 10)" fill="#E6E8E5"/>
<rect x="50" y="10" width="10" height="10" transform="rotate(-180 50 10)" fill="#E6E8E5"/>
<rect x="40" y="10" width="10" height="10" transform="rotate(-180 40 10)" fill="#E6E8E5"/>
<rect x="30" y="10" width="10" height="10" transform="rotate(-180 30 10)" fill="#E6E8E5"/>
<rect x="20" y="10" width="10" height="10" transform="rotate(-180 20 10)" fill="#E6E8E5"/>
<rect x="10" y="10" width="10" height="10" transform="rotate(-180 10 10)" fill="#E6E8E5"/>
<rect x="10" y="20" width="10" height="10" transform="rotate(-180 10 20)" fill="#E6E8E5"/>
<rect x="10" y="30" width="10" height="10" transform="rotate(-180 10 30)" fill="#E6E8E5"/>
<rect x="10" y="40" width="10" height="10" transform="rotate(-180 10 40)" fill="#E6E8E5"/>
<rect x="10" y="50" width="10" height="10" transform="rotate(-180 10 50)" fill="#E6E8E5"/>
<rect x="10" y="60" width="10" height="10" transform="rotate(-180 10 60)" fill="#E6E8E5"/>
<rect x="10" y="70" width="10" height="10" transform="rotate(-180 10 70)" fill="#E6E8E5"/>
<rect x="10" y="80" width="10" height="10" transform="rotate(-180 10 80)" fill="#E6E8E5"/>
<rect x="10" y="90" width="10" height="10" transform="rotate(-180 10 90)" fill="#E6E8E5"/>
<rect x="10" y="100" width="10" height="10" transform="rotate(-180 10 100)" fill="#E6E8E5"/>
<rect x="10" y="110" width="10" height="10" transform="rotate(-180 10 110)" fill="#E6E8E5"/>
<rect x="10" y="120" width="10" height="10" transform="rotate(-180 10 120)" fill="#E6E8E5"/>
<rect x="10" y="130" width="10" height="10" transform="rotate(-180 10 130)" fill="#E6E8E5"/>
<rect x="10" y="140" width="10" height="10" transform="rotate(-180 10 140)" fill="#E6E8E5"/>
<rect x="10" y="150" width="10" height="10" transform="rotate(-180 10 150)" fill="#E6E8E5"/>
<rect x="10" y="160" width="10" height="10" transform="rotate(-180 10 160)" fill="#E6E8E5"/>
<rect x="10" y="170" width="10" height="10" transform="rotate(-180 10 170)" fill="#E6E8E5"/>
<rect x="10" y="180" width="10" height="10" transform="rotate(-180 10 180)" fill="#E6E8E5"/>
<rect x="10" y="190" width="10" height="10" transform="rotate(-180 10 190)" fill="#E6E8E5"/>
<rect x="10" y="200" width="10" height="10" transform="rotate(-180 10 200)" fill="#E6E8E5"/>
<rect x="10" y="210" width="10" height="10" transform="rotate(-180 10 210)" fill="#E6E8E5"/>
<rect x="10" y="220" width="10" height="10" transform="rotate(-180 10 220)" fill="#E6E8E5"/>
<rect x="10" y="230" width="10" height="10" transform="rotate(-180 10 230)" fill="#E6E8E5"/>
<rect x="10" y="240" width="10" height="10" transform="rotate(-180 10 240)" fill="#E6E8E5"/>
<rect x="10" y="250" width="10" height="10" transform="rotate(-180 10 250)" fill="#E6E8E5"/>
<rect x="10" y="260" width="10" height="10" transform="rotate(-180 10 260)" fill="#E6E8E5"/>
<rect x="10" y="270" width="10" height="10" transform="rotate(-180 10 270)" fill="#E6E8E5"/>
<rect x="10" y="280" width="10" height="10" transform="rotate(-180 10 280)" fill="#E6E8E5"/>
<rect x="10" y="290" width="10" height="10" transform="rotate(-180 10 290)" fill="#E6E8E5"/>
<rect x="10" y="300" width="10" height="10" transform="rotate(-180 10 300)" fill="#E6E8E5"/>
<rect x="10" y="310" width="10" height="10" transform="rotate(-180 10 310)" fill="#E6E8E5"/>
<rect x="10" y="320" width="10" height="10" transform="rotate(-180 10 320)" fill="#E6E8E5"/>
<rect x="10" y="330" width="10" height="10" transform="rotate(-180 10 330)" fill="#E6E8E5"/>
<rect x="10" y="340" width="10" height="10" transform="rotate(-180 10 340)" fill="#E6E8E5"/>
<rect x="10" y="350" width="10" height="10" transform="rotate(-180 10 350)" fill="#E6E8E5"/>
<rect x="10" y="360" width="10" height="10" transform="rotate(-180 10 360)" fill="#E6E8E5"/>
<rect x="10" y="370" width="10" height="10" transform="rotate(-180 10 370)" fill="#E6E8E5"/>
<rect x="10" y="380" width="10" height="10" transform="rotate(-180 10 380)" fill="#E6E8E5"/>
<rect x="10" y="390" width="10" height="10" transform="rotate(-180 10 390)" fill="#E6E8E5"/>
<rect x="10" y="400" width="10" height="10" transform="rotate(-180 10 400)" fill="#E6E8E5"/>
<rect x="20" y="410" width="10" height="10" transform="rotate(180 20 410)" fill="#E6E8E5"/>
<rect x="30" y="410" width="10" height="10" transform="rotate(180 30 410)" fill="#E6E8E5"/>
<rect x="40" y="410" width="10" height="10" transform="rotate(180 40 410)" fill="#E6E8E5"/>
<rect x="50" y="410" width="10" height="10" transform="rotate(180 50 410)" fill="#E6E8E5"/>
<rect x="60" y="410" width="10" height="10" transform="rotate(180 60 410)" fill="#E6E8E5"/>
<rect x="70" y="410" width="10" height="10" transform="rotate(180 70 410)" fill="#E6E8E5"/>
<rect x="80" y="410" width="10" height="10" transform="rotate(180 80 410)" fill="#E6E8E5"/>
<rect x="90" y="410" width="10" height="10" transform="rotate(180 90 410)" fill="#E6E8E5"/>
<rect x="100" y="410" width="10" height="10" transform="rotate(180 100 410)" fill="#E6E8E5"/>
<rect x="110" y="410" width="10" height="10" transform="rotate(180 110 410)" fill="#E6E8E5"/>
<rect x="120" y="410" width="10" height="10" transform="rotate(180 120 410)" fill="#E6E8E5"/>
<rect x="130" y="410" width="10" height="10" transform="rotate(180 130 410)" fill="#E6E8E5"/>
<rect x="140" y="410" width="10" height="10" transform="rotate(180 140 410)" fill="#E6E8E5"/>
<rect x="150" y="410" width="10" height="10" transform="rotate(180 150 410)" fill="#E6E8E5"/>
<rect x="160" y="410" width="10" height="10" transform="rotate(180 160 410)" fill="#E6E8E5"/>
<rect x="170" y="410" width="10" height="10" transform="rotate(180 170 410)" fill="#E6E8E5"/>
<rect x="180" y="410" width="10" height="10" transform="rotate(180 180 410)" fill="#E6E8E5"/>
<rect x="190" y="410" width="10" height="10" transform="rotate(180 190 410)" fill="#E6E8E5"/>
<rect x="200" y="410" width="10" height="10" transform="rotate(180 200 410)" fill="#E6E8E5"/>
<rect x="210" y="410" width="10" height="10" transform="rotate(180 210 410)" fill="#E6E8E5"/>
<rect x="220" y="410" width="10" height="10" transform="rotate(180 220 410)" fill="#E6E8E5"/>
<rect x="230" y="410" width="10" height="10" transform="rotate(180 230 410)" fill="#E6E8E5"/>
<rect x="240" y="410" width="10" height="10" transform="rotate(180 240 410)" fill="#E6E8E5"/>
<rect x="250" y="410" width="10" height="10" transform="rotate(180 250 410)" fill="#E6E8E5"/>
<rect x="260" y="410" width="10" height="10" transform="rotate(180 260 410)" fill="#E6E8E5"/>
<rect x="270" y="410" width="10" height="10" transform="rotate(180 270 410)" fill="#E6E8E5"/>
<rect x="280" y="410" width="10" height="10" transform="rotate(180 280 410)" fill="#E6E8E5"/>
<rect x="290" y="410" width="10" height="10" transform="rotate(180 290 410)" fill="#E6E8E5"/>
<rect x="300" y="410" width="10" height="10" transform="rotate(180 300 410)" fill="#E6E8E5"/>
<rect x="310" y="410" width="10" height="10" transform="rotate(180 310 410)" fill="#E6E8E5"/>
<rect x="320" y="410" width="10" height="10" transform="rotate(180 320 410)" fill="#E6E8E5"/>
<rect x="330" y="410" width="10" height="10" transform="rotate(180 330 410)" fill="#E6E8E5"/>
<rect x="340" y="410" width="10" height="10" transform="rotate(180 340 410)" fill="#E6E8E5"/>
<rect x="350" y="410" width="10" height="10" transform="rotate(180 350 410)" fill="#E6E8E5"/>
<rect x="10" y="410" width="10" height="10" transform="rotate(-180 10 410)" fill="#E6E8E5"/>
<rect x="10" y="420" width="10" height="10" transform="rotate(-180 10 420)" fill="#E6E8E5"/>
<rect x="10" y="430" width="10" height="10" transform="rotate(-180 10 430)" fill="#E6E8E5"/>
<rect x="10" y="440" width="10" height="10" transform="rotate(-180 10 440)" fill="#E6E8E5"/>
<rect x="10" y="450" width="10" height="10" transform="rotate(-180 10 450)" fill="#E6E8E5"/>
<rect x="10" y="460" width="10" height="10" transform="rotate(-180 10 460)" fill="#E6E8E5"/>
<rect x="10" y="470" width="10" height="10" transform="rotate(-180 10 470)" fill="#E6E8E5"/>
<rect x="10" y="480" width="10" height="10" transform="rotate(-180 10 480)" fill="#E6E8E5"/>
<rect x="10" y="490" width="10" height="10" transform="rotate(-180 10 490)" fill="#E6E8E5"/>
<rect x="10" y="500" width="10" height="10" transform="rotate(-180 10 500)" fill="#E6E8E5"/>
<rect x="10" y="510" width="10" height="10" transform="rotate(-180 10 510)" fill="#E6E8E5"/>
<rect x="10" y="520" width="10" height="10" transform="rotate(-180 10 520)" fill="#E6E8E5"/>
<rect x="10" y="530" width="10" height="10" transform="rotate(-180 10 530)" fill="#E6E8E5"/>
<rect x="10" y="540" width="10" height="10" transform="rotate(-180 10 540)" fill="#E6E8E5"/>
<rect x="10" y="550" width="10" height="10" transform="rotate(-180 10 550)" fill="#E6E8E5"/>
<rect x="10" y="560" width="10" height="10" transform="rotate(-180 10 560)" fill="#E6E8E5"/>
<rect x="10" y="570" width="10" height="10" transform="rotate(-180 10 570)" fill="#E6E8E5"/>
<rect x="10" y="580" width="10" height="10" transform="rotate(-180 10 580)" fill="#E6E8E5"/>
<rect x="10" y="590" width="10" height="10" transform="rotate(-180 10 590)" fill="#E6E8E5"/>
<rect x="10" y="600" width="10" height="10" transform="rotate(-180 10 600)" fill="#E6E8E5"/>
<rect x="10" y="610" width="10" height="10" transform="rotate(-180 10 610)" fill="#E6E8E5"/>
<rect x="10" y="620" width="10" height="10" transform="rotate(-180 10 620)" fill="#E6E8E5"/>
<rect x="10" y="630" width="10" height="10" transform="rotate(-180 10 630)" fill="#E6E8E5"/>
<rect x="10" y="640" width="10" height="10" transform="rotate(-180 10 640)" fill="#E6E8E5"/>
<rect x="10" y="650" width="10" height="10" transform="rotate(-180 10 650)" fill="#E6E8E5"/>
<rect x="10" y="660" width="10" height="10" transform="rotate(-180 10 660)" fill="#E6E8E5"/>
<rect x="10" y="670" width="10" height="10" transform="rotate(-180 10 670)" fill="#E6E8E5"/>
<rect x="10" y="680" width="10" height="10" transform="rotate(-180 10 680)" fill="#E6E8E5"/>
<rect x="90" y="680" width="10" height="10" transform="rotate(180 90 680)" fill="#E6E8E5"/>
<rect width="10" height="10" transform="matrix(-1 0 0 1 90 130)" fill="#E6E8E5"/>
<rect x="10" y="690" width="10" height="10" transform="rotate(-180 10 690)" fill="#E6E8E5"/>
<rect x="90" y="690" width="10" height="10" transform="rotate(180 90 690)" fill="#E6E8E5"/>
<rect width="10" height="10" transform="matrix(-1 0 0 1 90 120)" fill="#E6E8E5"/>
<rect x="280" y="690" width="10" height="10" transform="rotate(180 280 690)" fill="#E6E8E5"/>
<rect width="10" height="10" transform="matrix(-1 0 0 1 280 120)" fill="#E6E8E5"/>
<rect x="10" y="700" width="10" height="10" transform="rotate(-180 10 700)" fill="#E6E8E5"/>
<rect x="90" y="700" width="10" height="10" transform="rotate(180 90 700)" fill="#E6E8E5"/>
<rect width="10" height="10" transform="matrix(-1 0 0 1 90 110)" fill="#E6E8E5"/>
<rect x="280" y="700" width="10" height="10" transform="rotate(180 280 700)" fill="#E6E8E5"/>
<rect width="10" height="10" transform="matrix(-1 0 0 1 280 110)" fill="#E6E8E5"/>
<rect x="10" y="710" width="10" height="10" transform="rotate(-180 10 710)" fill="#E6E8E5"/>
<rect x="90" y="710" width="10" height="10" transform="rotate(180 90 710)" fill="#E6E8E5"/>
<rect width="10" height="10" transform="matrix(-1 0 0 1 90 100)" fill="#E6E8E5"/>
<rect x="280" y="710" width="10" height="10" transform="rotate(180 280 710)" fill="#E6E8E5"/>
<rect width="10" height="10" transform="matrix(-1 0 0 1 280 100)" fill="#E6E8E5"/>
<rect x="10" y="720" width="10" height="10" transform="rotate(-180 10 720)" fill="#E6E8E5"/>
<rect x="90" y="720" width="10" height="10" transform="rotate(180 90 720)" fill="#E6E8E5"/>
<rect width="10" height="10" transform="matrix(-1 0 0 1 90 90)" fill="#E6E8E5"/>
<rect x="280" y="720" width="10" height="10" transform="rotate(180 280 720)" fill="#E6E8E5"/>
<rect width="10" height="10" transform="matrix(-1 0 0 1 280 90)" fill="#E6E8E5"/>
<rect x="10" y="730" width="10" height="10" transform="rotate(-180 10 730)" fill="#E6E8E5"/>
<rect x="90" y="730" width="10" height="10" transform="rotate(180 90 730)" fill="#E6E8E5"/>
<rect width="10" height="10" transform="matrix(-1 0 0 1 90 80)" fill="#E6E8E5"/>
<rect x="280" y="730" width="10" height="10" transform="rotate(180 280 730)" fill="#E6E8E5"/>
<rect width="10" height="10" transform="matrix(-1 0 0 1 280 80)" fill="#E6E8E5"/>
<rect x="10" y="740" width="10" height="10" transform="rotate(-180 10 740)" fill="#E6E8E5"/>
<rect x="90" y="740" width="10" height="10" transform="rotate(180 90 740)" fill="#E6E8E5"/>
<rect width="10" height="10" transform="matrix(-1 0 0 1 90 70)" fill="#E6E8E5"/>
<rect x="280" y="740" width="10" height="10" transform="rotate(180 280 740)" fill="#E6E8E5"/>
<rect width="10" height="10" transform="matrix(-1 0 0 1 280 70)" fill="#E6E8E5"/>
<rect x="10" y="750" width="10" height="10" transform="rotate(-180 10 750)" fill="#E6E8E5"/>
<rect x="90" y="750" width="10" height="10" transform="rotate(180 90 750)" fill="#E6E8E5"/>
<rect width="10" height="10" transform="matrix(-1 0 0 1 90 60)" fill="#E6E8E5"/>
<rect x="280" y="750" width="10" height="10" transform="rotate(180 280 750)" fill="#E6E8E5"/>
<rect width="10" height="10" transform="matrix(-1 0 0 1 280 60)" fill="#E6E8E5"/>
<rect x="10" y="760" width="10" height="10" transform="rotate(-180 10 760)" fill="#E6E8E5"/>
<rect x="90" y="760" width="10" height="10" transform="rotate(180 90 760)" fill="#E6E8E5"/>
<rect width="10" height="10" transform="matrix(-1 0 0 1 90 50)" fill="#E6E8E5"/>
<rect x="280" y="760" width="10" height="10" transform="rotate(180 280 760)" fill="#E6E8E5"/>
<rect width="10" height="10" transform="matrix(-1 0 0 1 280 50)" fill="#E6E8E5"/>
<rect x="10" y="770" width="10" height="10" transform="rotate(-180 10 770)" fill="#E6E8E5"/>
<rect x="90" y="770" width="10" height="10" transform="rotate(180 90 770)" fill="#E6E8E5"/>
<rect width="10" height="10" transform="matrix(-1 0 0 1 90 40)" fill="#E6E8E5"/>
<rect x="280" y="770" width="10" height="10" transform="rotate(180 280 770)" fill="#E6E8E5"/>
<rect width="10" height="10" transform="matrix(-1 0 0 1 280 40)" fill="#E6E8E5"/>
<rect x="10" y="780" width="10" height="10" transform="rotate(-180 10 780)" fill="#E6E8E5"/>
<rect x="90" y="780" width="10" height="10" transform="rotate(180 90 780)" fill="#E6E8E5"/>
<rect width="10" height="10" transform="matrix(-1 0 0 1 90 30)" fill="#E6E8E5"/>
<rect x="280" y="780" width="10" height="10" transform="rotate(180 280 780)" fill="#E6E8E5"/>
<rect width="10" height="10" transform="matrix(-1 0 0 1 280 30)" fill="#E6E8E5"/>
<rect x="10" y="790" width="10" height="10" transform="rotate(-180 10 790)" fill="#E6E8E5"/>
<rect x="90" y="790" width="10" height="10" transform="rotate(180 90 790)" fill="#E6E8E5"/>
<rect width="10" height="10" transform="matrix(-1 0 0 1 90 20)" fill="#E6E8E5"/>
<rect x="280" y="790" width="10" height="10" transform="rotate(180 280 790)" fill="#E6E8E5"/>
<rect width="10" height="10" transform="matrix(-1 0 0 1 280 20)" fill="#E6E8E5"/>
<rect x="10" y="800" width="10" height="10" transform="rotate(-180 10 800)" fill="#E6E8E5"/>
<rect x="90" y="800" width="10" height="10" transform="rotate(180 90 800)" fill="#E6E8E5"/>
<rect width="10" height="10" transform="matrix(-1 0 0 1 90 10)" fill="#E6E8E5"/>
<rect x="280" y="800" width="10" height="10" transform="rotate(180 280 800)" fill="#E6E8E5"/>
<rect width="10" height="10" transform="matrix(-1 0 0 1 280 10)" fill="#E6E8E5"/>
<rect x="10" y="810" width="10" height="10" transform="rotate(-180 10 810)" fill="#E6E8E5"/>
<rect width="10" height="10" transform="matrix(1 0 0 -1 90 140)" fill="#E6E8E5"/>
<rect width="10" height="10" transform="matrix(1 0 0 -1 100 140)" fill="#E6E8E5"/>
<rect width="10" height="10" transform="matrix(1 0 0 -1 110 140)" fill="#E6E8E5"/>
<rect width="10" height="10" transform="matrix(1 0 0 -1 120 140)" fill="#E6E8E5"/>
<rect width="10" height="10" transform="matrix(1 0 0 -1 130 140)" fill="#E6E8E5"/>
<rect width="10" height="10" transform="matrix(1 0 0 -1 140 140)" fill="#E6E8E5"/>
<rect width="10" height="10" transform="matrix(1 0 0 -1 150 189)" fill="#E6E8E5"/>
<rect width="10" height="10" transform="matrix(1 0 0 -1 150 360)" fill="#E6E8E5"/>
<rect width="10" height="10" transform="matrix(1 0 0 -1 140 150)" fill="#E6E8E5"/>
<rect width="10" height="10" transform="matrix(1 0 0 -1 210 150)" fill="#E6E8E5"/>
<rect width="10" height="10" transform="matrix(1 0 0 -1 140 160)" fill="#E6E8E5"/>
<rect width="10" height="10" transform="matrix(1 0 0 -1 210 160)" fill="#E6E8E5"/>
<rect width="10" height="10" transform="matrix(1 0 0 -1 140 170)" fill="#E6E8E5"/>
<rect width="10" height="10" transform="matrix(1 0 0 -1 210 170)" fill="#E6E8E5"/>
<rect width="10" height="10" transform="matrix(1 0 0 -1 140 180)" fill="#E6E8E5"/>
<rect width="10" height="10" transform="matrix(1 0 0 -1 210 180)" fill="#E6E8E5"/>
<rect width="10" height="10" transform="matrix(1 0 0 -1 150 140)" fill="#E6E8E5"/>
<rect width="10" height="10" transform="matrix(1 0 0 -1 160 189)" fill="#E6E8E5"/>
<rect width="10" height="10" transform="matrix(1 0 0 -1 160 360)" fill="#E6E8E5"/>
<rect width="10" height="10" transform="matrix(0 -1 -1 0 130 409)" fill="#E6E8E5"/>
<rect width="10" height="10" transform="matrix(0 -1 -1 0 240 412)" fill="#E6E8E5"/>
<rect width="10" height="10" transform="matrix(1 0 0 -1 160 140)" fill="#E6E8E5"/>
<rect width="10" height="10" transform="matrix(1 0 0 -1 170 189)" fill="#E6E8E5"/>
<rect width="10" height="10" transform="matrix(1 0 0 -1 170 360)" fill="#E6E8E5"/>
<rect width="10" height="10" transform="matrix(1 0 0 -1 170 140)" fill="#E6E8E5"/>
<rect width="10" height="10" transform="matrix(1 0 0 -1 180 189)" fill="#E6E8E5"/>
<rect width="10" height="10" transform="matrix(1 0 0 -1 180 360)" fill="#E6E8E5"/>
<rect width="10" height="10" transform="matrix(1 0 0 -1 180 140)" fill="#E6E8E5"/>
<rect width="10" height="10" transform="matrix(1 0 0 -1 190 189)" fill="#E6E8E5"/>
<rect width="10" height="10" transform="matrix(1 0 0 -1 190 360)" fill="#E6E8E5"/>
<rect width="10" height="10" transform="matrix(0 -1 -1 0 130 400)" fill="#E6E8E5"/>
<rect width="10" height="10" transform="matrix(0 -1 -1 0 240 400)" fill="#E6E8E5"/>
<rect width="10" height="10" transform="matrix(1 0 0 -1 210 360)" fill="#E6E8E5"/>
<rect width="10" height="10" transform="matrix(0 -1 -1 0 130 380)" fill="#E6E8E5"/>
<rect width="10" height="10" transform="matrix(0 -1 -1 0 240 380)" fill="#E6E8E5"/>
<rect width="10" height="10" transform="matrix(1 0 0 -1 130 360)" fill="#E6E8E5"/>
<rect width="10" height="10" transform="matrix(1 0 0 -1 190 140)" fill="#E6E8E5"/>
<rect width="10" height="10" transform="matrix(1 0 0 -1 200 189)" fill="#E6E8E5"/>
<rect width="10" height="10" transform="matrix(1 0 0 -1 200 360)" fill="#E6E8E5"/>
<rect width="10" height="10" transform="matrix(0 -1 -1 0 130 390)" fill="#E6E8E5"/>
<rect width="10" height="10" transform="matrix(0 -1 -1 0 240 390)" fill="#E6E8E5"/>
<rect width="10" height="10" transform="matrix(1 0 0 -1 220 360)" fill="#E6E8E5"/>
<rect width="10" height="10" transform="matrix(0 -1 -1 0 130 370)" fill="#E6E8E5"/>
<rect width="10" height="10" transform="matrix(0 -1 -1 0 240 370)" fill="#E6E8E5"/>
<rect width="10" height="10" transform="matrix(1 0 0 -1 140 360)" fill="#E6E8E5"/>
<rect width="10" height="10" transform="matrix(1 0 0 -1 200 140)" fill="#E6E8E5"/>
<rect width="10" height="10" transform="matrix(1 0 0 -1 210 140)" fill="#E6E8E5"/>
<rect width="10" height="10" transform="matrix(1 0 0 -1 220 140)" fill="#E6E8E5"/>
<rect width="10" height="10" transform="matrix(1 0 0 -1 230 140)" fill="#E6E8E5"/>
<rect width="10" height="10" transform="matrix(1 0 0 -1 240 140)" fill="#E6E8E5"/>
<rect width="10" height="10" transform="matrix(1 0 0 -1 250 140)" fill="#E6E8E5"/>
<rect width="10" height="10" transform="matrix(1 0 0 -1 260 140)" fill="#E6E8E5"/>
<rect width="10" height="10" transform="matrix(1 0 0 -1 270 140)" fill="#E6E8E5"/>
<rect x="90" y="670" width="10" height="10" fill="#E6E8E5"/>
<rect x="100" y="670" width="10" height="10" fill="#E6E8E5"/>
<rect x="110" y="670" width="10" height="10" fill="#E6E8E5"/>
<rect x="120" y="670" width="10" height="10" fill="#E6E8E5"/>
<rect x="130" y="670" width="10" height="10" fill="#E6E8E5"/>
<rect x="140" y="670" width="10" height="10" fill="#E6E8E5"/>
<rect x="150" y="621" width="10" height="10" fill="#E6E8E5"/>
<rect x="150" y="451" width="10" height="10" fill="#E6E8E5"/>
<rect x="140" y="660" width="10" height="10" fill="#E6E8E5"/>
<rect x="210" y="660" width="10" height="10" fill="#E6E8E5"/>
<rect x="140" y="650" width="10" height="10" fill="#E6E8E5"/>
<rect x="210" y="650" width="10" height="10" fill="#E6E8E5"/>
<rect x="140" y="640" width="10" height="10" fill="#E6E8E5"/>
<rect x="210" y="640" width="10" height="10" fill="#E6E8E5"/>
<rect x="140" y="630" width="10" height="10" fill="#E6E8E5"/>
<rect x="210" y="630" width="10" height="10" fill="#E6E8E5"/>
<rect x="150" y="670" width="10" height="10" fill="#E6E8E5"/>
<rect x="160" y="621" width="10" height="10" fill="#E6E8E5"/>
<rect x="160" y="451" width="10" height="10" fill="#E6E8E5"/>
<rect x="160" y="670" width="10" height="10" fill="#E6E8E5"/>
<rect x="170" y="621" width="10" height="10" fill="#E6E8E5"/>
<rect x="170" y="451" width="10" height="10" fill="#E6E8E5"/>
<rect x="170" y="670" width="10" height="10" fill="#E6E8E5"/>
<rect x="180" y="621" width="10" height="10" fill="#E6E8E5"/>
<rect x="180" y="451" width="10" height="10" fill="#E6E8E5"/>
<rect x="180" y="670" width="10" height="10" fill="#E6E8E5"/>
<rect x="190" y="621" width="10" height="10" fill="#E6E8E5"/>
<rect x="190" y="451" width="10" height="10" fill="#E6E8E5"/>
<rect x="130" y="411" width="10" height="10" transform="rotate(90 130 411)" fill="#E6E8E5"/>
<rect x="240" y="411" width="10" height="10" transform="rotate(90 240 411)" fill="#E6E8E5"/>
<rect x="210" y="451" width="10" height="10" fill="#E6E8E5"/>
<rect x="130" y="431" width="10" height="10" transform="rotate(90 130 431)" fill="#E6E8E5"/>
<rect x="240" y="431" width="10" height="10" transform="rotate(90 240 431)" fill="#E6E8E5"/>
<rect x="130" y="451" width="10" height="10" fill="#E6E8E5"/>
<rect x="190" y="670" width="10" height="10" fill="#E6E8E5"/>
<rect x="200" y="621" width="10" height="10" fill="#E6E8E5"/>
<rect x="200" y="451" width="10" height="10" fill="#E6E8E5"/>
<rect x="130" y="421" width="10" height="10" transform="rotate(90 130 421)" fill="#E6E8E5"/>
<rect x="240" y="421" width="10" height="10" transform="rotate(90 240 421)" fill="#E6E8E5"/>
<rect x="220" y="451" width="10" height="10" fill="#E6E8E5"/>
<rect x="130" y="441" width="10" height="10" transform="rotate(90 130 441)" fill="#E6E8E5"/>
<rect x="240" y="441" width="10" height="10" transform="rotate(90 240 441)" fill="#E6E8E5"/>
<rect x="140" y="451" width="10" height="10" fill="#E6E8E5"/>
<rect x="130" y="401" width="10" height="10" transform="rotate(90 130 401)" fill="#E6E8E5"/>
<rect x="200" y="670" width="10" height="10" fill="#E6E8E5"/>
<rect x="210" y="670" width="10" height="10" fill="#E6E8E5"/>
<rect x="220" y="670" width="10" height="10" fill="#E6E8E5"/>
<rect x="230" y="670" width="10" height="10" fill="#E6E8E5"/>
<rect x="240" y="670" width="10" height="10" fill="#E6E8E5"/>
<rect x="250" y="670" width="10" height="10" fill="#E6E8E5"/>
<rect x="260" y="670" width="10" height="10" fill="#E6E8E5"/>
<rect x="270" y="670" width="10" height="10" fill="#E6E8E5"/>
</g>
<defs>
<clipPath id="clip0_64_4">
<rect width="360" height="810" fill="white"/>
</clipPath>
</defs>
</svg>
