<svg width="90" height="43" viewBox="0 0 90 43" fill="none" xmlns="http://www.w3.org/2000/svg">
<rect x="17.0305" y="9.41528" width="1.38462" height="1.38462" fill="black"/>
<rect x="14.2617" y="10.7999" width="1.38462" height="1.38462" fill="black"/>
<rect x="12.8767" y="28.7999" width="1.38462" height="1.38462" fill="black"/>
<rect x="17.0305" y="31.5692" width="1.38462" height="1.38462" fill="black"/>
<rect x="18.4153" y="9.41528" width="1.38462" height="1.38462" fill="black"/>
<rect x="15.6462" y="10.7999" width="1.38462" height="1.38462" fill="black"/>
<rect x="14.2617" y="28.7999" width="1.38462" height="1.38462" fill="black"/>
<rect x="14.2617" y="30.1847" width="1.38462" height="1.38462" fill="black"/>
<rect x="14.2617" y="27.4153" width="1.38462" height="1.38462" fill="black"/>
<rect x="18.4153" y="31.5692" width="1.38462" height="1.38462" fill="black"/>
<rect x="19.8" y="9.41528" width="1.38462" height="1.38462" fill="black"/>
<rect x="15.6462" y="28.7999" width="1.38462" height="1.38462" fill="black"/>
<rect x="15.6462" y="30.1847" width="1.38462" height="1.38462" fill="black"/>
<rect x="15.6462" y="27.4153" width="1.38462" height="1.38462" fill="black"/>
<rect x="19.8" y="31.5692" width="1.38462" height="1.38462" fill="black"/>
<rect x="21.1846" y="9.41528" width="1.38462" height="1.38462" fill="black"/>
<rect x="17.0305" y="28.7999" width="1.38462" height="1.38462" fill="black"/>
<rect x="21.1846" y="31.5692" width="1.38462" height="1.38462" fill="black"/>
<rect x="22.5696" y="9.41528" width="1.38462" height="1.38462" fill="black"/>
<rect x="18.4153" y="28.7999" width="1.38462" height="1.38462" fill="black"/>
<rect x="22.5696" y="31.5692" width="1.38462" height="1.38462" fill="black"/>
<rect x="23.9539" y="10.7999" width="1.38462" height="1.38462" fill="black"/>
<rect x="25.3384" y="10.7999" width="1.38462" height="1.38462" fill="black"/>
<rect x="25.3384" y="12.1847" width="1.38462" height="1.38462" fill="black"/>
<rect x="25.3384" y="13.5692" width="1.38462" height="1.38462" fill="black"/>
<rect x="26.7231" y="12.1847" width="1.38462" height="1.38462" fill="black"/>
<rect x="22.5696" y="13.5692" width="1.38462" height="1.38462" fill="black"/>
<rect x="23.9539" y="13.5692" width="1.38462" height="1.38462" fill="black"/>
<rect x="26.7231" y="13.5692" width="1.38462" height="1.38462" fill="black"/>
<rect x="28.1079" y="13.5692" width="1.38462" height="1.38462" fill="black"/>
<rect x="25.3384" y="23.2616" width="1.38462" height="1.38462" fill="black"/>
<rect x="28.1079" y="14.9537" width="1.38462" height="1.38462" fill="black"/>
<rect x="25.3384" y="24.6464" width="1.38462" height="1.38462" fill="black"/>
<rect x="29.4922" y="14.9537" width="1.38462" height="1.38462" fill="black"/>
<rect x="30.8767" y="17.7231" width="1.38462" height="1.38462" fill="black"/>
<rect x="26.7231" y="23.2616" width="1.38462" height="1.38462" fill="black"/>
<rect x="26.7231" y="21.8768" width="1.38462" height="1.38462" fill="black"/>
<rect x="26.7231" y="14.9537" width="1.38462" height="1.38462" fill="black"/>
<rect x="23.9539" y="24.6464" width="1.38462" height="1.38462" fill="black"/>
<rect x="22.5696" y="23.2616" width="1.38462" height="1.38462" fill="black"/>
<rect x="21.1846" y="21.8768" width="1.38462" height="1.38462" fill="black"/>
<rect x="19.8" y="20.4924" width="1.38462" height="1.38462" fill="black"/>
<rect x="28.1079" y="16.3385" width="1.38462" height="1.38462" fill="black"/>
<rect x="25.3384" y="26.0308" width="1.38462" height="1.38462" fill="black"/>
<rect x="12.8767" y="26.0308" width="1.38462" height="1.38462" fill="black"/>
<rect x="12.8767" y="27.4153" width="1.38462" height="1.38462" fill="black"/>
<rect x="8.72314" y="23.2616" width="1.38462" height="1.38462" fill="black"/>
<rect x="17.0305" y="19.1077" width="1.38462" height="1.38462" fill="black"/>
<rect x="17.0305" y="17.7231" width="1.38462" height="1.38462" fill="black"/>
<rect x="17.0305" y="16.3385" width="1.38462" height="1.38462" fill="black"/>
<rect x="17.0305" y="14.9537" width="1.38462" height="1.38462" fill="black"/>
<rect x="19.8" y="14.9537" width="1.38462" height="1.38462" fill="black"/>
<rect x="17.0305" y="13.5692" width="1.38462" height="1.38462" fill="black"/>
<rect x="17.0305" y="12.1847" width="1.38462" height="1.38462" fill="black"/>
<rect x="18.4153" y="10.7999" width="1.38462" height="1.38462" fill="black"/>
<rect x="29.4922" y="16.3385" width="1.38462" height="1.38462" fill="black"/>
<rect x="30.8767" y="19.1077" width="1.38462" height="1.38462" fill="black"/>
<rect x="26.7231" y="24.6464" width="1.38462" height="1.38462" fill="black"/>
<rect x="23.9539" y="26.0308" width="1.38462" height="1.38462" fill="black"/>
<rect x="11.4922" y="26.0308" width="1.38462" height="1.38462" fill="black"/>
<rect x="11.4922" y="27.4153" width="1.38462" height="1.38462" fill="black"/>
<rect x="15.6462" y="19.1077" width="1.38462" height="1.38462" fill="black"/>
<rect x="15.6462" y="17.7231" width="1.38462" height="1.38462" fill="black"/>
<rect x="15.6462" y="16.3385" width="1.38462" height="1.38462" fill="black"/>
<rect x="15.6462" y="14.9537" width="1.38462" height="1.38462" fill="black"/>
<rect x="12.8767" y="13.5692" width="1.38462" height="1.38462" fill="black"/>
<rect x="11.4922" y="14.9537" width="1.38462" height="1.38462" fill="black"/>
<rect x="10.1079" y="16.3385" width="1.38462" height="1.38462" fill="black"/>
<rect x="15.6462" y="13.5692" width="1.38462" height="1.38462" fill="black"/>
<rect x="12.8767" y="12.1847" width="1.38462" height="1.38462" fill="black"/>
<rect x="11.4922" y="13.5692" width="1.38462" height="1.38462" fill="black"/>
<rect x="10.1079" y="14.9537" width="1.38462" height="1.38462" fill="black"/>
<rect x="22.5696" y="26.0308" width="1.38462" height="1.38462" fill="black"/>
<rect x="10.1079" y="26.0308" width="1.38462" height="1.38462" fill="black"/>
<rect x="10.1079" y="24.6464" width="1.38462" height="1.38462" fill="black"/>
<rect x="14.2617" y="19.1077" width="1.38462" height="1.38462" fill="black"/>
<rect x="12.8767" y="24.6464" width="1.38462" height="1.38462" fill="black"/>
<rect x="14.2617" y="24.6464" width="1.38462" height="1.38462" fill="white"/>
<rect x="15.6462" y="24.6464" width="1.38462" height="1.38462" fill="white"/>
<rect x="15.6462" y="26.0308" width="1.38462" height="1.38462" fill="white"/>
<rect x="17.0305" y="24.6464" width="1.38462" height="1.38462" fill="white"/>
<rect x="17.0305" y="26.0308" width="1.38462" height="1.38462" fill="white"/>
<rect x="17.0305" y="27.4153" width="1.38462" height="1.38462" fill="white"/>
<rect x="18.4153" y="24.6464" width="1.38462" height="1.38462" fill="white"/>
<rect x="18.4153" y="26.0308" width="1.38462" height="1.38462" fill="white"/>
<rect x="18.4153" y="27.4153" width="1.38462" height="1.38462" fill="white"/>
<rect x="19.8" y="24.6464" width="1.38462" height="1.38462" fill="white"/>
<rect x="19.8" y="26.0308" width="1.38462" height="1.38462" fill="white"/>
<rect x="21.1846" y="26.0308" width="1.38462" height="1.38462" fill="white"/>
<rect x="11.4922" y="24.6464" width="1.38462" height="1.38462" fill="black"/>
<rect x="8.72314" y="21.8768" width="1.38462" height="1.38462" fill="black"/>
<rect x="14.2617" y="17.7231" width="1.38462" height="1.38462" fill="black"/>
<rect x="12.8767" y="23.2616" width="1.38462" height="1.38462" fill="black"/>
<rect x="14.2617" y="23.2616" width="1.38462" height="1.38462" fill="white"/>
<rect x="15.6462" y="23.2616" width="1.38462" height="1.38462" fill="white"/>
<rect x="17.0305" y="23.2616" width="1.38462" height="1.38462" fill="white"/>
<rect x="18.4153" y="23.2616" width="1.38462" height="1.38462" fill="white"/>
<rect x="19.8" y="23.2616" width="1.38462" height="1.38462" fill="white"/>
<rect x="21.1846" y="24.6464" width="1.38462" height="1.38462" fill="white"/>
<rect x="22.5696" y="24.6464" width="1.38462" height="1.38462" fill="white"/>
<rect x="11.4922" y="23.2616" width="1.38462" height="1.38462" fill="black"/>
<rect x="8.72314" y="20.4924" width="1.38462" height="1.38462" fill="black"/>
<rect x="14.2617" y="16.3385" width="1.38462" height="1.38462" fill="black"/>
<rect x="12.8767" y="21.8768" width="1.38462" height="1.38462" fill="black"/>
<rect x="14.2617" y="21.8768" width="1.38462" height="1.38462" fill="white"/>
<rect x="15.6462" y="21.8768" width="1.38462" height="1.38462" fill="white"/>
<rect x="15.6462" y="20.4924" width="1.38462" height="1.38462" fill="white"/>
<rect x="17.0305" y="21.8768" width="1.38462" height="1.38462" fill="white"/>
<rect x="17.0305" y="20.4924" width="1.38462" height="1.38462" fill="white"/>
<rect x="18.4153" y="21.8768" width="1.38462" height="1.38462" fill="white"/>
<rect x="18.4153" y="20.4924" width="1.38462" height="1.38462" fill="white"/>
<rect x="19.8" y="21.8768" width="1.38462" height="1.38462" fill="white"/>
<rect x="21.1846" y="23.2616" width="1.38462" height="1.38462" fill="white"/>
<rect width="1.38462" height="1.38462" transform="matrix(-1 0 0 1 30.8767 23.2616)" fill="white"/>
<rect width="1.38462" height="1.38462" transform="matrix(0 1 1 0 25.3384 14.9537)" fill="white"/>
<rect width="1.38462" height="1.38462" transform="matrix(0 1 1 0 23.9539 17.7231)" fill="white"/>
<rect width="1.38462" height="1.38462" transform="matrix(0 1 1 0 23.9539 16.3385)" fill="white"/>
<rect width="1.38462" height="1.38462" transform="matrix(0 1 1 0 21.1846 12.1847)" fill="white"/>
<rect width="1.38462" height="1.38462" transform="matrix(0 1 1 0 21.1846 13.5692)" fill="white"/>
<rect width="1.38462" height="1.38462" transform="matrix(0 1 1 0 15.6462 12.1847)" fill="white"/>
<rect width="1.38462" height="1.38462" transform="matrix(0 1 1 0 17.0305 10.7999)" fill="white"/>
<rect width="1.38462" height="1.38462" transform="matrix(0 1 1 0 11.4922 21.8768)" fill="white"/>
<rect width="1.38462" height="1.38462" transform="matrix(0 1 1 0 11.4922 20.4924)" fill="white"/>
<rect width="1.38462" height="1.38462" transform="matrix(0 1 1 0 11.4922 19.1077)" fill="white"/>
<rect width="1.38462" height="1.38462" transform="matrix(0 1 1 0 12.8767 19.1077)" fill="white"/>
<rect width="1.38462" height="1.38462" transform="matrix(0 1 1 0 19.8 30.1847)" fill="white"/>
<rect width="1.38462" height="1.38462" transform="matrix(0 1 1 0 18.4153 30.1847)" fill="white"/>
<rect width="1.38462" height="1.38462" transform="matrix(0 1 1 0 17.0305 30.1847)" fill="white"/>
<rect width="1.38462" height="1.38462" transform="matrix(0 1 1 0 21.1846 30.1847)" fill="white"/>
<rect width="1.38462" height="1.38462" transform="matrix(0 1 1 0 22.5696 30.1847)" fill="white"/>
<rect width="1.38462" height="1.38462" transform="matrix(0 1 1 0 11.4922 17.7231)" fill="white"/>
<rect width="1.38462" height="1.38462" transform="matrix(0 1 1 0 12.8767 17.7231)" fill="white"/>
<rect width="1.38462" height="1.38462" transform="matrix(0 1 1 0 19.8 28.7999)" fill="white"/>
<rect width="1.38462" height="1.38462" transform="matrix(0 1 1 0 21.1846 28.7999)" fill="white"/>
<rect width="1.38462" height="1.38462" transform="matrix(0 1 1 0 22.5696 28.7999)" fill="white"/>
<rect width="1.38462" height="1.38462" transform="matrix(0 1 1 0 21.1846 10.7999)" fill="white"/>
<rect width="1.38462" height="1.38462" transform="matrix(0 1 1 0 25.3384 17.7231)" fill="white"/>
<rect width="1.38462" height="1.38462" transform="matrix(0 1 1 0 25.3384 16.3385)" fill="white"/>
<rect width="1.38462" height="1.38462" transform="matrix(0 1 1 0 22.5696 12.1847)" fill="white"/>
<rect width="1.38462" height="1.38462" transform="matrix(0 1 1 0 22.5696 10.7999)" fill="white"/>
<rect width="1.38462" height="1.38462" transform="matrix(0 1 1 0 26.7231 19.1077)" fill="white"/>
<rect width="1.38462" height="1.38462" transform="matrix(0 1 1 0 23.9539 19.1077)" fill="white"/>
<rect width="1.38462" height="1.38462" transform="matrix(0 1 1 0 25.3384 19.1077)" fill="white"/>
<rect width="1.38462" height="1.38462" transform="matrix(0 1 1 0 26.7231 20.4924)" fill="white"/>
<rect width="1.38462" height="1.38462" transform="matrix(0 1 1 0 23.9539 20.4924)" fill="white"/>
<rect width="1.38462" height="1.38462" transform="matrix(0 1 1 0 25.3384 20.4924)" fill="white"/>
<rect width="1.38462" height="1.38462" transform="matrix(0 1 1 0 25.3384 21.8768)" fill="white"/>
<rect width="1.38462" height="1.38462" transform="matrix(-1 0 0 1 30.8767 21.8768)" fill="white"/>
<rect width="1.38462" height="1.38462" transform="matrix(0 1 1 0 23.9539 14.9537)" fill="white"/>
<rect width="1.38462" height="1.38462" transform="matrix(0 1 1 0 22.5696 17.7231)" fill="white"/>
<rect width="1.38462" height="1.38462" transform="matrix(0 1 1 0 22.5696 16.3385)" fill="white"/>
<rect width="1.38462" height="1.38462" transform="matrix(0 1 1 0 19.8 12.1847)" fill="white"/>
<rect width="1.38462" height="1.38462" transform="matrix(0 1 1 0 19.8 13.5692)" fill="white"/>
<rect width="1.38462" height="1.38462" transform="matrix(0 1 1 0 14.2617 12.1847)" fill="white"/>
<rect width="1.38462" height="1.38462" transform="matrix(0 1 1 0 14.2617 13.5692)" fill="white"/>
<rect width="1.38462" height="1.38462" transform="matrix(0 1 1 0 12.8767 14.9537)" fill="white"/>
<rect width="1.38462" height="1.38462" transform="matrix(0 1 1 0 11.4922 16.3385)" fill="white"/>
<rect width="1.38462" height="1.38462" transform="matrix(0 1 1 0 10.1079 23.2616)" fill="white"/>
<rect width="1.38462" height="1.38462" transform="matrix(0 1 1 0 10.1079 21.8768)" fill="white"/>
<rect width="1.38462" height="1.38462" transform="matrix(0 1 1 0 10.1079 20.4924)" fill="white"/>
<rect width="1.38462" height="1.38462" transform="matrix(0 1 1 0 10.1079 19.1077)" fill="white"/>
<rect width="1.38462" height="1.38462" transform="matrix(0 1 1 0 10.1079 17.7231)" fill="white"/>
<rect width="1.38462" height="1.38462" transform="matrix(0 1 1 0 19.8 10.7999)" fill="white"/>
<rect width="1.38462" height="1.38462" transform="matrix(0 1 1 0 22.5696 19.1077)" fill="white"/>
<rect width="1.38462" height="1.38462" transform="matrix(0 1 1 0 22.5696 20.4924)" fill="white"/>
<rect width="1.38462" height="1.38462" transform="matrix(0 1 1 0 23.9539 21.8768)" fill="white"/>
<rect width="1.38462" height="1.38462" transform="matrix(0 1 1 0 23.9539 23.2616)" fill="white"/>
<rect width="1.38462" height="1.38462" transform="matrix(-1 0 0 1 30.8767 20.4924)" fill="white"/>
<rect width="1.38462" height="1.38462" transform="matrix(-1 0 0 1 30.8767 19.1077)" fill="white"/>
<rect width="1.38462" height="1.38462" transform="matrix(-1 0 0 1 30.8767 17.7231)" fill="white"/>
<rect width="1.38462" height="1.38462" transform="matrix(-1 0 0 1 29.4922 21.8768)" fill="white"/>
<rect width="1.38462" height="1.38462" transform="matrix(0 1 1 0 22.5696 14.9537)" fill="white"/>
<rect width="1.38462" height="1.38462" transform="matrix(0 1 1 0 26.7231 17.7231)" fill="white"/>
<rect width="1.38462" height="1.38462" transform="matrix(0 1 1 0 26.7231 16.3385)" fill="white"/>
<rect width="1.38462" height="1.38462" transform="matrix(0 1 1 0 23.9539 12.1847)" fill="white"/>
<rect width="1.38462" height="1.38462" transform="matrix(0 1 1 0 21.1846 17.7231)" fill="white"/>
<rect width="1.38462" height="1.38462" transform="matrix(0 1 1 0 21.1846 16.3385)" fill="white"/>
<rect width="1.38462" height="1.38462" transform="matrix(0 1 1 0 18.4153 12.1847)" fill="white"/>
<rect width="1.38462" height="1.38462" transform="matrix(0 1 1 0 19.8 17.7231)" fill="white"/>
<rect width="1.38462" height="1.38462" transform="matrix(0 1 1 0 21.1846 19.1077)" fill="white"/>
<rect width="1.38462" height="1.38462" transform="matrix(0 1 1 0 19.8 19.1077)" fill="white"/>
<rect width="1.38462" height="1.38462" transform="matrix(0 1 1 0 21.1846 20.4924)" fill="white"/>
<rect width="1.38462" height="1.38462" transform="matrix(0 1 1 0 22.5696 21.8768)" fill="white"/>
<rect x="8.72314" y="19.1077" width="1.38462" height="1.38462" fill="black"/>
<rect x="14.2617" y="14.9537" width="1.38462" height="1.38462" fill="black"/>
<rect x="12.8767" y="20.4924" width="1.38462" height="1.38462" fill="black"/>
<rect x="8.72314" y="17.7231" width="1.38462" height="1.38462" fill="black"/>
<rect x="14.2617" y="20.4924" width="1.38462" height="1.38462" fill="black"/>
<rect x="28.1079" y="23.2616" width="1.38462" height="1.38462" fill="black"/>
<rect x="28.1079" y="17.7231" width="1.38462" height="1.38462" fill="black"/>
<rect x="25.3384" y="27.4153" width="1.38462" height="1.38462" fill="black"/>
<rect x="21.1846" y="27.4153" width="1.38462" height="1.38462" fill="black"/>
<rect x="30.8767" y="20.4924" width="1.38462" height="1.38462" fill="black"/>
<rect x="26.7231" y="26.0308" width="1.38462" height="1.38462" fill="black"/>
<rect x="14.2617" y="26.0308" width="1.38462" height="1.38462" fill="black"/>
<rect x="18.4153" y="19.1077" width="1.38462" height="1.38462" fill="black"/>
<rect x="18.4153" y="17.7231" width="1.38462" height="1.38462" fill="black"/>
<rect x="18.4153" y="16.3385" width="1.38462" height="1.38462" fill="black"/>
<rect x="19.8" y="16.3385" width="1.38462" height="1.38462" fill="black"/>
<rect x="12.8767" y="16.3385" width="1.38462" height="1.38462" fill="black"/>
<rect x="18.4153" y="14.9537" width="1.38462" height="1.38462" fill="black"/>
<rect x="21.1846" y="14.9537" width="1.38462" height="1.38462" fill="black"/>
<rect x="18.4153" y="13.5692" width="1.38462" height="1.38462" fill="black"/>
<rect x="23.9539" y="27.4153" width="1.38462" height="1.38462" fill="black"/>
<rect x="19.8" y="27.4153" width="1.38462" height="1.38462" fill="black"/>
<rect x="28.1079" y="24.6464" width="1.38462" height="1.38462" fill="black"/>
<rect x="28.1079" y="19.1077" width="1.38462" height="1.38462" fill="black"/>
<rect x="25.3384" y="28.7999" width="1.38462" height="1.38462" fill="black"/>
<rect x="30.8767" y="21.8768" width="1.38462" height="1.38462" fill="black"/>
<rect x="26.7231" y="27.4153" width="1.38462" height="1.38462" fill="black"/>
<rect x="22.5696" y="27.4153" width="1.38462" height="1.38462" fill="black"/>
<rect x="23.9539" y="28.7999" width="1.38462" height="1.38462" fill="black"/>
<rect x="28.1079" y="26.0308" width="1.38462" height="1.38462" fill="black"/>
<rect x="29.4922" y="24.6464" width="1.38462" height="1.38462" fill="black"/>
<rect x="28.1079" y="20.4924" width="1.38462" height="1.38462" fill="black"/>
<rect x="25.3384" y="30.1847" width="1.38462" height="1.38462" fill="black"/>
<rect x="30.8767" y="23.2616" width="1.38462" height="1.38462" fill="black"/>
<rect x="26.7231" y="28.7999" width="1.38462" height="1.38462" fill="black"/>
<rect x="23.9539" y="30.1847" width="1.38462" height="1.38462" fill="black"/>
<rect x="28.1079" y="27.4153" width="1.38462" height="1.38462" fill="black"/>
<rect x="29.4922" y="26.0308" width="1.38462" height="1.38462" fill="black"/>
<rect y="5.53845" width="2.76923" height="31.2923" fill="black"/>
<rect width="2.76923" height="31.2923" transform="matrix(-1 0 0 1 90 5.53845)" fill="black"/>
<rect x="5.53857" width="78.9231" height="2.76923" fill="black"/>
<rect x="5.53857" y="39.6" width="78.9231" height="2.76923" fill="black"/>
<rect x="2.76929" y="2.76929" width="2.76923" height="2.76923" fill="black"/>
<rect width="2.76923" height="2.76923" transform="matrix(-1 0 0 1 87.2307 2.76929)" fill="black"/>
<rect x="2.76929" y="36.8308" width="2.76923" height="2.76923" fill="black"/>
<rect width="2.76923" height="2.76923" transform="matrix(-1 0 0 1 87.2307 36.8308)" fill="black"/>
</svg>
