<svg width="170" height="170" viewBox="0 0 170 170" fill="none" xmlns="http://www.w3.org/2000/svg">
<rect x="60" width="10" height="10" fill="black"/>
<rect x="40" y="10" width="10" height="10" fill="black"/>
<rect x="30" y="140" width="10" height="10" fill="black"/>
<rect x="60" y="160" width="10" height="10" fill="black"/>
<rect x="70" width="10" height="10" fill="black"/>
<rect x="50" y="10" width="10" height="10" fill="black"/>
<rect x="40" y="140" width="10" height="10" fill="black"/>
<rect x="40" y="150" width="10" height="10" fill="black"/>
<rect x="40" y="130" width="10" height="10" fill="black"/>
<rect x="70" y="160" width="10" height="10" fill="black"/>
<rect x="80" width="10" height="10" fill="black"/>
<rect x="50" y="140" width="10" height="10" fill="black"/>
<rect x="50" y="150" width="10" height="10" fill="black"/>
<rect x="50" y="130" width="10" height="10" fill="black"/>
<rect x="80" y="160" width="10" height="10" fill="black"/>
<rect x="90" width="10" height="10" fill="black"/>
<rect x="60" y="140" width="10" height="10" fill="black"/>
<rect x="90" y="160" width="10" height="10" fill="black"/>
<rect x="100" width="10" height="10" fill="black"/>
<rect x="70" y="140" width="10" height="10" fill="black"/>
<rect x="100" y="160" width="10" height="10" fill="black"/>
<rect x="110" y="10" width="10" height="10" fill="black"/>
<rect x="120" y="10" width="10" height="10" fill="black"/>
<rect x="120" y="20" width="10" height="10" fill="black"/>
<rect x="120" y="30" width="10" height="10" fill="black"/>
<rect x="130" y="20" width="10" height="10" fill="black"/>
<rect x="100" y="30" width="10" height="10" fill="black"/>
<rect x="110" y="30" width="10" height="10" fill="black"/>
<rect x="130" y="30" width="10" height="10" fill="black"/>
<rect x="140" y="30" width="10" height="10" fill="black"/>
<rect x="120" y="100" width="10" height="10" fill="black"/>
<rect x="140" y="40" width="10" height="10" fill="black"/>
<rect x="120" y="110" width="10" height="10" fill="black"/>
<rect x="150" y="40" width="10" height="10" fill="black"/>
<rect x="160" y="60" width="10" height="10" fill="black"/>
<rect x="130" y="100" width="10" height="10" fill="black"/>
<rect x="130" y="90" width="10" height="10" fill="black"/>
<rect x="130" y="40" width="10" height="10" fill="black"/>
<rect x="110" y="110" width="10" height="10" fill="black"/>
<rect x="100" y="100" width="10" height="10" fill="black"/>
<rect x="90" y="90" width="10" height="10" fill="black"/>
<rect x="80" y="80" width="10" height="10" fill="black"/>
<rect x="140" y="50" width="10" height="10" fill="black"/>
<rect x="120" y="120" width="10" height="10" fill="black"/>
<rect x="30" y="120" width="10" height="10" fill="black"/>
<rect x="30" y="130" width="10" height="10" fill="black"/>
<rect y="100" width="10" height="10" fill="black"/>
<rect x="60" y="70" width="10" height="10" fill="black"/>
<rect x="60" y="60" width="10" height="10" fill="black"/>
<rect x="60" y="50" width="10" height="10" fill="black"/>
<rect x="60" y="40" width="10" height="10" fill="black"/>
<rect x="80" y="40" width="10" height="10" fill="black"/>
<rect x="60" y="30" width="10" height="10" fill="black"/>
<rect x="60" y="20" width="10" height="10" fill="black"/>
<rect x="70" y="10" width="10" height="10" fill="black"/>
<rect x="150" y="50" width="10" height="10" fill="black"/>
<rect x="160" y="70" width="10" height="10" fill="black"/>
<rect x="130" y="110" width="10" height="10" fill="black"/>
<rect x="110" y="120" width="10" height="10" fill="black"/>
<rect x="20" y="120" width="10" height="10" fill="black"/>
<rect x="20" y="130" width="10" height="10" fill="black"/>
<rect x="50" y="70" width="10" height="10" fill="black"/>
<rect x="50" y="60" width="10" height="10" fill="black"/>
<rect x="50" y="50" width="10" height="10" fill="black"/>
<rect x="50" y="40" width="10" height="10" fill="black"/>
<rect x="30" y="30" width="10" height="10" fill="black"/>
<rect x="20" y="40" width="10" height="10" fill="black"/>
<rect x="10" y="50" width="10" height="10" fill="black"/>
<rect x="50" y="30" width="10" height="10" fill="black"/>
<rect x="30" y="20" width="10" height="10" fill="black"/>
<rect x="20" y="30" width="10" height="10" fill="black"/>
<rect x="10" y="40" width="10" height="10" fill="black"/>
<rect x="100" y="120" width="10" height="10" fill="black"/>
<rect x="10" y="120" width="10" height="10" fill="black"/>
<rect x="10" y="110" width="10" height="10" fill="black"/>
<rect x="40" y="70" width="10" height="10" fill="black"/>
<rect x="30" y="110" width="10" height="10" fill="black"/>
<rect x="40" y="110" width="10" height="10" fill="white"/>
<rect x="50" y="110" width="10" height="10" fill="white"/>
<rect x="50" y="120" width="10" height="10" fill="white"/>
<rect x="60" y="110" width="10" height="10" fill="white"/>
<rect x="60" y="120" width="10" height="10" fill="white"/>
<rect x="60" y="130" width="10" height="10" fill="white"/>
<rect x="70" y="110" width="10" height="10" fill="white"/>
<rect x="70" y="120" width="10" height="10" fill="white"/>
<rect x="70" y="130" width="10" height="10" fill="white"/>
<rect x="80" y="110" width="10" height="10" fill="white"/>
<rect x="80" y="120" width="10" height="10" fill="white"/>
<rect x="90" y="120" width="10" height="10" fill="white"/>
<rect x="20" y="110" width="10" height="10" fill="black"/>
<rect y="90" width="10" height="10" fill="black"/>
<rect x="40" y="60" width="10" height="10" fill="black"/>
<rect x="30" y="100" width="10" height="10" fill="black"/>
<rect x="40" y="100" width="10" height="10" fill="white"/>
<rect x="50" y="100" width="10" height="10" fill="white"/>
<rect x="60" y="100" width="10" height="10" fill="white"/>
<rect x="70" y="100" width="10" height="10" fill="white"/>
<rect x="80" y="100" width="10" height="10" fill="white"/>
<rect x="90" y="110" width="10" height="10" fill="white"/>
<rect x="100" y="110" width="10" height="10" fill="white"/>
<rect x="20" y="100" width="10" height="10" fill="black"/>
<rect y="80" width="10" height="10" fill="black"/>
<rect x="40" y="50" width="10" height="10" fill="black"/>
<rect x="30" y="90" width="10" height="10" fill="black"/>
<rect x="40" y="90" width="10" height="10" fill="white"/>
<rect x="50" y="90" width="10" height="10" fill="white"/>
<rect x="50" y="80" width="10" height="10" fill="white"/>
<rect x="60" y="90" width="10" height="10" fill="white"/>
<rect x="60" y="80" width="10" height="10" fill="white"/>
<rect x="70" y="90" width="10" height="10" fill="white"/>
<rect x="70" y="80" width="10" height="10" fill="white"/>
<rect x="80" y="90" width="10" height="10" fill="white"/>
<rect x="90" y="100" width="10" height="10" fill="white"/>
<rect width="10" height="10" transform="matrix(-1 0 0 1 160 100)" fill="white"/>
<rect width="10" height="10" transform="matrix(0 1 1 0 120 40)" fill="white"/>
<rect width="10" height="10" transform="matrix(0 1 1 0 110 60)" fill="white"/>
<rect width="10" height="10" transform="matrix(0 1 1 0 110 50)" fill="white"/>
<rect width="10" height="10" transform="matrix(0 1 1 0 90 20)" fill="white"/>
<rect width="10" height="10" transform="matrix(0 1 1 0 90 30)" fill="white"/>
<rect width="10" height="10" transform="matrix(0 1 1 0 50 20)" fill="white"/>
<rect width="10" height="10" transform="matrix(0 1 1 0 60 10)" fill="white"/>
<rect width="10" height="10" transform="matrix(0 1 1 0 20 90)" fill="white"/>
<rect width="10" height="10" transform="matrix(0 1 1 0 20 80)" fill="white"/>
<rect width="10" height="10" transform="matrix(0 1 1 0 20 70)" fill="white"/>
<rect width="10" height="10" transform="matrix(0 1 1 0 30 70)" fill="white"/>
<rect width="10" height="10" transform="matrix(0 1 1 0 80 150)" fill="white"/>
<rect width="10" height="10" transform="matrix(0 1 1 0 70 150)" fill="white"/>
<rect width="10" height="10" transform="matrix(0 1 1 0 60 150)" fill="white"/>
<rect width="10" height="10" transform="matrix(0 1 1 0 90 150)" fill="white"/>
<rect width="10" height="10" transform="matrix(0 1 1 0 100 150)" fill="white"/>
<rect width="10" height="10" transform="matrix(0 1 1 0 20 60)" fill="white"/>
<rect width="10" height="10" transform="matrix(0 1 1 0 30 60)" fill="white"/>
<rect width="10" height="10" transform="matrix(0 1 1 0 80 140)" fill="white"/>
<rect width="10" height="10" transform="matrix(0 1 1 0 90 140)" fill="white"/>
<rect width="10" height="10" transform="matrix(0 1 1 0 100 140)" fill="white"/>
<rect width="10" height="10" transform="matrix(0 1 1 0 90 10)" fill="white"/>
<rect width="10" height="10" transform="matrix(0 1 1 0 120 60)" fill="white"/>
<rect width="10" height="10" transform="matrix(0 1 1 0 120 50)" fill="white"/>
<rect width="10" height="10" transform="matrix(0 1 1 0 100 20)" fill="white"/>
<rect width="10" height="10" transform="matrix(0 1 1 0 100 10)" fill="white"/>
<rect width="10" height="10" transform="matrix(0 1 1 0 130 70)" fill="white"/>
<rect width="10" height="10" transform="matrix(0 1 1 0 110 70)" fill="white"/>
<rect width="10" height="10" transform="matrix(0 1 1 0 120 70)" fill="white"/>
<rect width="10" height="10" transform="matrix(0 1 1 0 130 80)" fill="white"/>
<rect width="10" height="10" transform="matrix(0 1 1 0 110 80)" fill="white"/>
<rect width="10" height="10" transform="matrix(0 1 1 0 120 80)" fill="white"/>
<rect width="10" height="10" transform="matrix(0 1 1 0 120 90)" fill="white"/>
<rect width="10" height="10" transform="matrix(-1 0 0 1 160 90)" fill="white"/>
<rect width="10" height="10" transform="matrix(0 1 1 0 110 40)" fill="white"/>
<rect width="10" height="10" transform="matrix(0 1 1 0 100 60)" fill="white"/>
<rect width="10" height="10" transform="matrix(0 1 1 0 100 50)" fill="white"/>
<rect width="10" height="10" transform="matrix(0 1 1 0 80 20)" fill="white"/>
<rect width="10" height="10" transform="matrix(0 1 1 0 80 30)" fill="white"/>
<rect width="10" height="10" transform="matrix(0 1 1 0 40 20)" fill="white"/>
<rect width="10" height="10" transform="matrix(0 1 1 0 40 30)" fill="white"/>
<rect width="10" height="10" transform="matrix(0 1 1 0 30 40)" fill="white"/>
<rect width="10" height="10" transform="matrix(0 1 1 0 20 50)" fill="white"/>
<rect width="10" height="10" transform="matrix(0 1 1 0 10 100)" fill="white"/>
<rect width="10" height="10" transform="matrix(0 1 1 0 10 90)" fill="white"/>
<rect width="10" height="10" transform="matrix(0 1 1 0 10 80)" fill="white"/>
<rect width="10" height="10" transform="matrix(0 1 1 0 10 70)" fill="white"/>
<rect width="10" height="10" transform="matrix(0 1 1 0 10 60)" fill="white"/>
<rect width="10" height="10" transform="matrix(0 1 1 0 80 10)" fill="white"/>
<rect width="10" height="10" transform="matrix(0 1 1 0 100 70)" fill="white"/>
<rect width="10" height="10" transform="matrix(0 1 1 0 100 80)" fill="white"/>
<rect width="10" height="10" transform="matrix(0 1 1 0 110 90)" fill="white"/>
<rect width="10" height="10" transform="matrix(0 1 1 0 110 100)" fill="white"/>
<rect width="10" height="10" transform="matrix(-1 0 0 1 160 80)" fill="white"/>
<rect width="10" height="10" transform="matrix(-1 0 0 1 160 70)" fill="white"/>
<rect width="10" height="10" transform="matrix(-1 0 0 1 160 60)" fill="white"/>
<rect width="10" height="10" transform="matrix(-1 0 0 1 150 90)" fill="white"/>
<rect width="10" height="10" transform="matrix(0 1 1 0 100 40)" fill="white"/>
<rect width="10" height="10" transform="matrix(0 1 1 0 130 60)" fill="white"/>
<rect width="10" height="10" transform="matrix(0 1 1 0 130 50)" fill="white"/>
<rect width="10" height="10" transform="matrix(0 1 1 0 110 20)" fill="white"/>
<rect width="10" height="10" transform="matrix(0 1 1 0 90 60)" fill="white"/>
<rect width="10" height="10" transform="matrix(0 1 1 0 90 50)" fill="white"/>
<rect width="10" height="10" transform="matrix(0 1 1 0 70 20)" fill="white"/>
<rect width="10" height="10" transform="matrix(0 1 1 0 80 60)" fill="white"/>
<rect width="10" height="10" transform="matrix(0 1 1 0 90 70)" fill="white"/>
<rect width="10" height="10" transform="matrix(0 1 1 0 80 70)" fill="white"/>
<rect width="10" height="10" transform="matrix(0 1 1 0 90 80)" fill="white"/>
<rect width="10" height="10" transform="matrix(0 1 1 0 100 90)" fill="white"/>
<rect y="70" width="10" height="10" fill="black"/>
<rect x="40" y="40" width="10" height="10" fill="black"/>
<rect x="30" y="80" width="10" height="10" fill="black"/>
<rect y="60" width="10" height="10" fill="black"/>
<rect x="40" y="80" width="10" height="10" fill="black"/>
<rect x="140" y="100" width="10" height="10" fill="black"/>
<rect x="140" y="60" width="10" height="10" fill="black"/>
<rect x="120" y="130" width="10" height="10" fill="black"/>
<rect x="90" y="130" width="10" height="10" fill="black"/>
<rect x="160" y="80" width="10" height="10" fill="black"/>
<rect x="130" y="120" width="10" height="10" fill="black"/>
<rect x="40" y="120" width="10" height="10" fill="black"/>
<rect x="70" y="70" width="10" height="10" fill="black"/>
<rect x="70" y="60" width="10" height="10" fill="black"/>
<rect x="70" y="50" width="10" height="10" fill="black"/>
<rect x="80" y="50" width="10" height="10" fill="black"/>
<rect x="30" y="50" width="10" height="10" fill="black"/>
<rect x="70" y="40" width="10" height="10" fill="black"/>
<rect x="90" y="40" width="10" height="10" fill="black"/>
<rect x="70" y="30" width="10" height="10" fill="black"/>
<rect x="110" y="130" width="10" height="10" fill="black"/>
<rect x="80" y="130" width="10" height="10" fill="black"/>
<rect x="140" y="110" width="10" height="10" fill="black"/>
<rect x="140" y="70" width="10" height="10" fill="black"/>
<rect x="120" y="140" width="10" height="10" fill="black"/>
<rect x="160" y="90" width="10" height="10" fill="black"/>
<rect x="130" y="130" width="10" height="10" fill="black"/>
<rect x="100" y="130" width="10" height="10" fill="black"/>
<rect x="110" y="140" width="10" height="10" fill="black"/>
<rect x="140" y="120" width="10" height="10" fill="black"/>
<rect x="150" y="110" width="10" height="10" fill="black"/>
<rect x="140" y="80" width="10" height="10" fill="black"/>
<rect x="120" y="150" width="10" height="10" fill="black"/>
<rect x="160" y="100" width="10" height="10" fill="black"/>
<rect x="130" y="140" width="10" height="10" fill="black"/>
<rect x="110" y="150" width="10" height="10" fill="black"/>
<rect x="140" y="130" width="10" height="10" fill="black"/>
<rect x="150" y="120" width="10" height="10" fill="black"/>
</svg>
