<svg width="100" height="110" viewBox="0 0 100 110" fill="none" xmlns="http://www.w3.org/2000/svg">
<rect width="10" height="10" fill="#081C9A"/>
<rect x="10" width="10" height="10" fill="#081C9A"/>
<rect x="10" y="100" width="10" height="10" fill="#081C9A"/>
<rect x="20" width="10" height="10" fill="#081C9A"/>
<rect x="20" y="100" width="10" height="10" fill="#081C9A"/>
<rect x="30" width="10" height="10" fill="#081C9A"/>
<rect x="30" y="100" width="10" height="10" fill="#081C9A"/>
<rect x="40" width="10" height="10" fill="#081C9A"/>
<rect x="40" y="100" width="10" height="10" fill="#081C9A"/>
<rect x="40" y="90" width="10" height="10" fill="#081C9A"/>
<rect x="40" y="80" width="10" height="10" fill="#081C9A"/>
<rect x="40" y="70" width="10" height="10" fill="#081C9A"/>
<rect x="50" y="80" width="10" height="10" fill="#081C9A"/>
<rect x="50" y="90" width="10" height="10" fill="#081C9A"/>
<rect width="10" height="10" transform="matrix(1 0 0 -1 40 20)" fill="#081C9A"/>
<rect width="10" height="10" transform="matrix(1 0 0 -1 40 30)" fill="#081C9A"/>
<rect width="10" height="10" transform="matrix(1 0 0 -1 40 40)" fill="#C0E0F5"/>
<rect width="10" height="10" transform="matrix(1 0 0 -1 50 30)" fill="#081C9A"/>
<rect width="10" height="10" transform="matrix(1 0 0 -1 50 20)" fill="#081C9A"/>
<rect x="50" width="10" height="10" fill="#081C9A"/>
<rect x="50" y="100" width="10" height="10" fill="#081C9A"/>
<rect x="60" width="10" height="10" fill="#081C9A"/>
<rect x="60" y="100" width="10" height="10" fill="#081C9A"/>
<rect x="70" width="10" height="10" fill="#081C9A"/>
<rect x="70" y="100" width="10" height="10" fill="#081C9A"/>
<rect x="80" width="10" height="10" fill="#081C9A"/>
<rect x="80" y="100" width="10" height="10" fill="#081C9A"/>
<rect x="90" width="10" height="10" fill="#081C9A"/>
<rect x="90" y="100" width="10" height="10" fill="#081C9A"/>
<rect y="10" width="10" height="10" fill="#081C9A"/>
<rect x="90" y="10" width="10" height="10" fill="#081C9A"/>
<rect y="20" width="10" height="10" fill="#081C9A"/>
<rect x="90" y="20" width="10" height="10" fill="#081C9A"/>
<rect y="30" width="10" height="10" fill="#081C9A"/>
<rect x="90" y="30" width="10" height="10" fill="#081C9A"/>
<rect y="40" width="10" height="10" fill="#081C9A"/>
<rect x="90" y="40" width="10" height="10" fill="#081C9A"/>
<rect y="50" width="10" height="10" fill="#081C9A"/>
<rect x="90" y="50" width="10" height="10" fill="#081C9A"/>
<rect y="60" width="10" height="10" fill="#081C9A"/>
<rect x="90" y="60" width="10" height="10" fill="#081C9A"/>
<rect y="70" width="10" height="10" fill="#081C9A"/>
<rect x="90" y="70" width="10" height="10" fill="#081C9A"/>
<rect y="80" width="10" height="10" fill="#081C9A"/>
<rect x="90" y="80" width="10" height="10" fill="#081C9A"/>
<rect y="90" width="10" height="10" fill="#081C9A"/>
<rect x="90" y="90" width="10" height="10" fill="#081C9A"/>
<rect y="100" width="10" height="10" fill="#081C9A"/>
<rect x="10" y="10" width="10" height="10" fill="white"/>
<rect x="20" y="10" width="10" height="10" fill="white"/>
<rect x="30" y="10" width="10" height="10" fill="#C0E0F5"/>
<rect x="60" y="10" width="10" height="10" fill="#C0E0F5"/>
<rect x="70" y="10" width="10" height="10" fill="#C0E0F5"/>
<rect x="80" y="10" width="10" height="10" fill="#C0E0F5"/>
<rect x="10" y="20" width="10" height="10" fill="white"/>
<rect x="20" y="20" width="10" height="10" fill="white"/>
<rect x="30" y="20" width="10" height="10" fill="#C0E0F5"/>
<rect x="60" y="20" width="10" height="10" fill="#C0E0F5"/>
<rect x="70" y="20" width="10" height="10" fill="#C0E0F5"/>
<rect x="80" y="20" width="10" height="10" fill="#C0E0F5"/>
<rect x="10" y="30" width="10" height="10" fill="#C0E0F5"/>
<rect x="20" y="30" width="10" height="10" fill="#C0E0F5"/>
<rect x="30" y="30" width="10" height="10" fill="#C0E0F5"/>
<rect x="60" y="30" width="10" height="10" fill="#C0E0F5"/>
<rect x="70" y="30" width="10" height="10" fill="#C0E0F5"/>
<rect x="80" y="30" width="10" height="10" fill="#C0E0F5"/>
<rect x="10" y="40" width="10" height="10" fill="#C0E0F5"/>
<rect x="20" y="40" width="10" height="10" fill="#C0E0F5"/>
<rect x="30" y="40" width="10" height="10" fill="#C0E0F5"/>
<rect x="40" y="40" width="10" height="10" fill="#C0E0F5"/>
<rect x="60" y="40" width="10" height="10" fill="#C0E0F5"/>
<rect x="70" y="40" width="10" height="10" fill="#C0E0F5"/>
<rect x="80" y="40" width="10" height="10" fill="#C0E0F5"/>
<rect x="10" y="50" width="10" height="10" fill="#C0E0F5"/>
<rect x="20" y="50" width="10" height="10" fill="#C0E0F5"/>
<rect x="30" y="50" width="10" height="10" fill="#C0E0F5"/>
<rect x="40" y="50" width="10" height="10" fill="#C0E0F5"/>
<rect x="60" y="50" width="10" height="10" fill="#C0E0F5"/>
<rect x="70" y="50" width="10" height="10" fill="#C0E0F5"/>
<rect x="80" y="50" width="10" height="10" fill="#C0E0F5"/>
<rect x="10" y="60" width="10" height="10" fill="#C0E0F5"/>
<rect x="20" y="60" width="10" height="10" fill="#C0E0F5"/>
<rect x="30" y="60" width="10" height="10" fill="#C0E0F5"/>
<rect x="40" y="60" width="10" height="10" fill="#77B7F8"/>
<rect x="60" y="60" width="10" height="10" fill="#C0E0F5"/>
<rect x="70" y="60" width="10" height="10" fill="#C0E0F5"/>
<rect x="80" y="60" width="10" height="10" fill="#C0E0F5"/>
<rect x="10" y="70" width="10" height="10" fill="#C0E0F5"/>
<rect x="20" y="70" width="10" height="10" fill="#C0E0F5"/>
<rect x="30" y="70" width="10" height="10" fill="#C0E0F5"/>
<rect x="60" y="70" width="10" height="10" fill="#C0E0F5"/>
<rect x="50" y="30" width="10" height="10" fill="#081C9A"/>
<rect x="50" y="40" width="10" height="10" fill="#C0E0F5"/>
<rect x="50" y="50" width="10" height="10" fill="#C0E0F5"/>
<rect x="50" y="60" width="10" height="10" fill="#C0E0F5"/>
<rect x="50" y="70" width="10" height="10" fill="#77B7F8"/>
<rect x="70" y="70" width="10" height="10" fill="#C0E0F5"/>
<rect x="80" y="70" width="10" height="10" fill="#C0E0F5"/>
<rect x="10" y="80" width="10" height="10" fill="#C0E0F5"/>
<rect x="20" y="80" width="10" height="10" fill="#C0E0F5"/>
<rect x="30" y="80" width="10" height="10" fill="#C0E0F5"/>
<rect x="60" y="80" width="10" height="10" fill="#C0E0F5"/>
<rect x="70" y="80" width="10" height="10" fill="#C0E0F5"/>
<rect x="80" y="80" width="10" height="10" fill="#C0E0F5"/>
<rect x="10" y="90" width="10" height="10" fill="#77B7F8"/>
<rect x="20" y="90" width="10" height="10" fill="#77B7F8"/>
<rect x="30" y="90" width="10" height="10" fill="#77B7F8"/>
<rect x="60" y="90" width="10" height="10" fill="#77B7F8"/>
<rect x="70" y="90" width="10" height="10" fill="#77B7F8"/>
<rect x="80" y="90" width="10" height="10" fill="#77B7F8"/>
</svg>
